<?xml version="1.0" encoding="utf-8"?>
<!-- Generator: Adobe Illustrator 16.0.2, SVG Export Plug-In . SVG Version: 6.00 Build 0)  -->
<!DOCTYPE svg PUBLIC "-//W3C//DTD SVG 1.1//EN" "http://www.w3.org/Graphics/SVG/1.1/DTD/svg11.dtd">
<svg version="1.1" id="Camada_1" xmlns="http://www.w3.org/2000/svg" xmlns:xlink="http://www.w3.org/1999/xlink" x="0px" y="0px"
	 width="841.891px" height="595.281px" viewBox="0 0 841.891 595.281" enable-background="new 0 0 841.891 595.281"
	 xml:space="preserve">
<g>
	<g>
		<defs>
			<polygon id="SVGID_1_" points="16.808,510.135 239.372,63.805 608.357,63.805 830.922,510.135 			"/>
		</defs>
		<clipPath id="SVGID_2_">
			<use xlink:href="#SVGID_1_"  overflow="visible"/>
		</clipPath>
		<polyline clip-path="url(#SVGID_2_)" fill="#4FAA27" points="608.357,63.805 239.372,63.805 16.808,510.135 830.922,510.135 
			608.357,63.805 		"/>
	</g>
</g>
<g>
	<g>
		<defs>
			<polygon id="SVGID_3_" points="48.077,481.206 244.252,72.735 603.478,72.735 799.652,481.206 			"/>
		</defs>
		<clipPath id="SVGID_4_">
			<use xlink:href="#SVGID_3_"  overflow="visible"/>
		</clipPath>
		<path clip-path="url(#SVGID_4_)" fill="#0F8934" d="M528.29,435.411H315.922l-6.251,43.264h224.871L528.29,435.411
			 M422.12,408.286c-1.314,0-2.645-0.144-3.875-0.438c-1.23-0.297-2.375-0.734-3.352-1.314c-0.978-0.58-1.781-1.301-2.32-2.178
			c-0.551-0.863-0.834-1.867-0.791-3.027c-0.014-1.145,0.311-2.135,0.877-2.998c0.564-0.848,1.371-1.557,2.348-2.121
			c0.976-0.566,2.107-0.99,3.324-1.273c1.215-0.283,2.502-0.424,3.803-0.424c1.287,0,2.591,0.141,3.806,0.424
			c1.217,0.283,2.348,0.707,3.323,1.273c0.978,0.564,1.781,1.273,2.349,2.121c0.566,0.848,0.891,1.854,0.877,2.998
			c0.043,1.146-0.254,2.15-0.807,3.027c-0.552,0.86-1.357,1.598-2.335,2.178c-0.975,0.58-2.12,1.018-3.352,1.314
			C424.764,408.13,423.45,408.286,422.12,408.286 M614.588,362.407H229.637l-33.801,116.268h109.648l6.888-45.992H531.84
			l6.888,45.992H648.39L614.588,362.407 M492.762,207.5H351.478c-0.197,5.7,1.823,10.734,5.544,15.076
			c3.775,4.427,9.292,8.118,15.968,11.088c6.746,2.998,14.623,5.233,23.01,6.732c8.443,1.499,17.354,2.234,26.107,2.234
			s17.664-0.735,26.106-2.234c8.4-1.485,16.277-3.72,23.011-6.718c6.661-2.971,12.19-6.661,15.967-11.088
			C490.924,218.235,492.962,213.2,492.762,207.5 M662.051,207.5H495.506c0.256,5.926-1.811,11.173-5.655,15.698
			c-3.904,4.611-9.632,8.472-16.563,11.555c-7.014,3.126-15.203,5.474-23.957,7.029c-8.797,1.57-18.088,2.334-27.211,2.334h-0.014
			c-9.123,0-18.414-0.764-27.211-2.334c-8.74-1.556-16.943-3.89-23.958-7.029c-6.932-3.097-12.645-6.943-16.563-11.555
			c-3.847-4.525-5.911-9.772-5.657-15.698H182.16L53.871,478.675h137.778l35.088-118.502h105.773
			c3.933-5.912,9.107-11.217,15.261-15.813c6.066-4.539,13.096-8.43,20.859-11.582c7.693-3.127,16.138-5.545,25.117-7.186
			c8.939-1.627,18.443-2.488,28.328-2.504h0.1c9.9,0,19.404,0.863,28.357,2.49c8.979,1.641,17.438,4.059,25.131,7.184
			c7.779,3.154,14.822,7.043,20.889,11.584c6.152,4.609,11.343,9.914,15.273,15.826h105.689l35.088,118.502h137.75L662.051,207.5
			 M422.12,173.826c-7.807,0-15.797,0.58-23.463,1.796c-7.693,1.217-15.09,3.056-21.638,5.572
			c-6.619,2.546-12.417,5.799-16.815,9.815c-4.483,4.087-7.553,8.98-8.599,14.765h141.017c-1.047-5.784-4.115-10.691-8.6-14.765
			c-4.412-4.017-10.211-7.27-16.828-9.815c-6.549-2.517-13.945-4.355-21.64-5.572C437.919,174.42,429.926,173.826,422.12,173.826
			 M475.608,111.358l-106.99,0.043c1.669,2.192,4.214,4.215,7.48,6.011c3.296,1.81,7.341,3.394,11.993,4.709
			c4.667,1.315,9.943,2.348,15.656,3.055c5.729,0.708,11.896,1.09,18.344,1.09h0.07c6.449,0,12.615-0.382,18.357-1.09
			c5.713-0.707,10.987-1.753,15.655-3.068c4.64-1.315,8.685-2.899,11.979-4.724C471.422,115.573,473.94,113.55,475.608,111.358
			 M476.288,75.393H367.925l-1.584,10.946h111.516L476.288,75.393 M422.12,97.88c-0.734,0-1.484-0.043-2.178-0.142
			c-0.694-0.099-1.344-0.227-1.881-0.41c-0.552-0.184-1.004-0.41-1.314-0.693c-0.313-0.269-0.482-0.594-0.453-0.961
			c-0.014-0.368,0.17-0.679,0.48-0.948s0.776-0.495,1.315-0.679c0.552-0.184,1.188-0.311,1.881-0.41
			c0.691-0.085,1.414-0.142,2.148-0.142c0.736,0,1.471,0.043,2.15,0.142c0.692,0.085,1.33,0.227,1.881,0.41s1.004,0.41,1.33,0.679
			c0.311,0.27,0.494,0.595,0.494,0.948c0.014,0.367-0.156,0.679-0.468,0.961c-0.311,0.27-0.764,0.51-1.313,0.693
			c-0.554,0.184-1.189,0.325-1.881,0.41C423.606,97.837,422.856,97.88,422.12,97.88 M531.147,75.393H478.31l1.754,11.71H364.149
			l1.754-11.71h-52.837l-10.127,34.862h238.333L531.147,75.393 M599.485,75.266h-66.357l10.605,35.838h-65.621
			c-1.613,2.361-4.172,4.539-7.525,6.478c-3.393,1.966-7.606,3.677-12.473,5.091c-4.908,1.429-10.467,2.546-16.506,3.323
			c-6.066,0.778-12.615,1.188-19.445,1.188h-0.07c-6.846,0-13.395-0.41-19.461-1.174c-6.053-0.764-11.611-1.896-16.519-3.323
			c-4.879-1.415-9.094-3.14-12.488-5.092c-3.365-1.938-5.926-4.115-7.538-6.491h-65.594L311.1,75.266h-66.372l-61.747,130.509
			h165.895c1.117-6.011,4.327-11.088,8.994-15.316c4.597-4.158,10.621-7.523,17.495-10.154c6.803-2.603,14.468-4.512,22.445-5.756
			c7.934-1.245,16.221-1.853,24.311-1.853s16.377,0.607,24.313,1.853c7.977,1.259,15.641,3.153,22.442,5.756
			c6.873,2.631,12.898,5.996,17.496,10.154c4.666,4.229,7.877,9.306,8.98,15.316h165.878L599.485,75.266"/>
	</g>
	<g>
		<defs>
			<polygon id="SVGID_5_" points="48.077,481.206 244.252,72.735 603.478,72.735 799.652,481.206 			"/>
		</defs>
		<clipPath id="SVGID_6_">
			<use xlink:href="#SVGID_5_"  overflow="visible"/>
		</clipPath>
		<path clip-path="url(#SVGID_6_)" fill="#FFFFFF" d="M307.243,477.091H197.595l-0.198,0.664H307.13L307.243,477.091
			 M650.148,477.091H540.486l0.1,0.664h109.762L650.148,477.091 M479.955,73.088h54.762l0.17,0.594h66.357l61.746,130.509h1.641
			l0.82,1.726h-1.642l128.289,271.174h-137.75l1.117,3.746H192.291l1.117-3.746H55.63l128.289-271.174h-1.627l0.82-1.726h1.612
			l61.747-130.509h66.372l0.17-0.594h54.746H479.955 M603.478,72.735H244.252L48.077,481.206h751.575L603.478,72.735"/>
	</g>
	<g>
		<defs>
			<polygon id="SVGID_7_" points="48.077,481.206 244.252,72.735 603.478,72.735 799.652,481.206 			"/>
		</defs>
		<clipPath id="SVGID_8_">
			<use xlink:href="#SVGID_7_"  overflow="visible"/>
		</clipPath>
		<path clip-path="url(#SVGID_8_)" fill="#FFFFFF" d="M497.265,205.916h-2.729c0.196,5.7-1.84,10.734-5.56,15.091
			c-3.791,4.427-9.307,8.117-15.967,11.088c-6.746,2.998-14.625,5.232-23.01,6.718c-8.443,1.499-17.354,2.234-26.109,2.234
			c-8.754,0-17.664-0.735-26.106-2.234c-8.4-1.485-16.278-3.734-23.009-6.732c-6.661-2.97-12.178-6.661-15.969-11.088
			c-3.72-4.355-5.74-9.376-5.544-15.076h-2.743c-0.255,5.926,1.811,11.173,5.657,15.698c3.903,4.611,9.631,8.472,16.562,11.555
			c7.015,3.126,15.204,5.474,23.958,7.029c8.797,1.57,18.088,2.334,27.211,2.334h0.014c9.121,0,18.414-0.764,27.211-2.334
			c8.74-1.556,16.943-3.89,23.957-7.029c6.93-3.097,12.646-6.943,16.563-11.555C495.441,217.089,497.506,211.857,497.265,205.916
			 M423.879,171.112c-8.09,0-16.377,0.607-24.311,1.853c-7.978,1.244-15.643,3.153-22.445,5.756
			c-6.874,2.631-12.898,5.996-17.495,10.154c-4.667,4.229-7.877,9.306-8.994,15.316h2.729c1.046-5.784,4.114-10.691,8.599-14.765
			c4.412-4.017,10.196-7.27,16.815-9.815c6.548-2.517,13.944-4.355,21.638-5.572c7.652-1.202,15.656-1.796,23.463-1.796
			s15.799,0.58,23.449,1.796c7.692,1.217,15.09,3.056,21.639,5.572c6.619,2.546,12.416,5.799,16.83,9.815
			c4.482,4.087,7.551,8.98,8.598,14.765h2.718c-1.104-6.011-4.314-11.088-8.982-15.316c-4.582-4.158-10.604-7.523-17.494-10.154
			c-6.803-2.603-14.467-4.512-22.442-5.756C440.256,171.719,431.969,171.112,423.879,171.112"/>
	</g>
	<g>
		<defs>
			<polygon id="SVGID_9_" points="48.077,481.206 244.252,72.735 603.478,72.735 799.652,481.206 			"/>
		</defs>
		<clipPath id="SVGID_10_">
			<use xlink:href="#SVGID_9_"  overflow="visible"/>
		</clipPath>
		<polyline clip-path="url(#SVGID_10_)" fill="#FFFFFF" points="534.717,73.088 479.955,73.088 480.068,73.809 532.906,73.809 
			543.047,108.671 304.698,108.671 314.838,73.809 367.661,73.809 367.775,73.088 313.028,73.088 312.844,73.682 302.238,109.52 
			367.845,109.52 367.831,109.52 367.831,109.52 367.831,109.52 367.831,109.52 367.45,108.953 480.281,108.911 479.912,109.463 
			479.897,109.477 479.885,109.491 479.885,109.505 479.871,109.52 545.492,109.52 534.887,73.682 534.717,73.088 		"/>
	</g>
	<g>
		<defs>
			<polygon id="SVGID_11_" points="48.077,481.206 244.252,72.735 603.478,72.735 799.652,481.206 			"/>
		</defs>
		<clipPath id="SVGID_12_">
			<use xlink:href="#SVGID_11_"  overflow="visible"/>
		</clipPath>
		<path clip-path="url(#SVGID_12_)" fill="#FFFFFF" d="M369.684,73.809h108.363l1.584,10.946H368.114L369.684,73.809
			 M479.955,73.088h-112.18l-0.113,0.721l-1.754,11.71h115.9l-1.754-11.71L479.955,73.088"/>
	</g>
	<g>
		<defs>
			<polygon id="SVGID_13_" points="48.077,481.206 244.252,72.735 603.478,72.735 799.652,481.206 			"/>
		</defs>
		<clipPath id="SVGID_14_">
			<use xlink:href="#SVGID_13_"  overflow="visible"/>
		</clipPath>
		<path clip-path="url(#SVGID_14_)" fill="#FFFFFF" d="M423.851,124.681c-6.436,0-12.602-0.382-18.344-1.09
			c-5.713-0.707-10.988-1.739-15.656-3.055c-4.64-1.315-8.684-2.899-11.993-4.709c-3.268-1.796-5.813-3.818-7.48-6.011l106.99-0.043
			c-1.668,2.192-4.187,4.229-7.453,6.025c-3.295,1.824-7.34,3.408-11.979,4.724c-4.668,1.315-9.942,2.361-15.655,3.068
			c-5.742,0.708-11.908,1.09-18.357,1.09L423.851,124.681 M480.281,108.911l-112.832,0.042l0.382,0.566l0,0l0,0l0,0l0,0
			c1.612,2.361,4.172,4.539,7.538,6.491c3.395,1.966,7.607,3.677,12.487,5.092c4.907,1.428,10.465,2.545,16.52,3.323
			c6.066,0.764,12.615,1.174,19.459,1.174h0.072c6.844,0,13.379-0.41,19.444-1.188c6.054-0.764,11.611-1.895,16.506-3.323
			c4.863-1.414,9.078-3.14,12.474-5.091c3.367-1.938,5.926-4.116,7.522-6.478c0,0,0-0.015,0.017-0.015c0,0,0-0.014,0.014-0.014
			s0-0.015,0.014-0.015c0,0,0-0.014,0.015-0.014L480.281,108.911"/>
	</g>
	<g>
		<defs>
			<polygon id="SVGID_15_" points="48.077,481.206 244.252,72.735 603.478,72.735 799.652,481.206 			"/>
		</defs>
		<clipPath id="SVGID_16_">
			<use xlink:href="#SVGID_15_"  overflow="visible"/>
		</clipPath>
		<path clip-path="url(#SVGID_16_)" fill="#FFFFFF" d="M423.879,91.926c-0.734,0-1.471,0.042-2.148,0.142
			c-0.692,0.085-1.329,0.226-1.881,0.41c-0.553,0.184-1.006,0.41-1.315,0.679c-0.311,0.269-0.494,0.594-0.48,0.947
			c-0.014,0.368,0.142,0.679,0.453,0.962c0.312,0.269,0.764,0.509,1.314,0.693c0.551,0.184,1.188,0.325,1.881,0.41
			c0.692,0.099,1.428,0.141,2.178,0.141s1.486-0.042,2.178-0.141c0.693-0.1,1.345-0.227,1.881-0.41
			c0.554-0.185,1.007-0.41,1.316-0.693c0.312-0.269,0.48-0.594,0.467-0.962c0.015-0.367-0.17-0.679-0.496-0.947
			c-0.311-0.269-0.776-0.495-1.327-0.679c-0.554-0.185-1.189-0.312-1.882-0.41C425.336,91.968,424.615,91.926,423.879,91.926"/>
	</g>
	<g>
		<defs>
			<polygon id="SVGID_17_" points="48.077,481.206 244.252,72.735 603.478,72.735 799.652,481.206 			"/>
		</defs>
		<clipPath id="SVGID_18_">
			<use xlink:href="#SVGID_17_"  overflow="visible"/>
		</clipPath>
		<path clip-path="url(#SVGID_18_)" fill="#FFFFFF" d="M197.595,477.091l33.801-116.268h384.952l33.801,116.268l0.199,0.664H540.586
			l0.367,2.418H306.777l0.368-2.418H197.411L197.595,477.091 M619.248,358.602h-105.69c0.043,0.058,0.07,0.113,0.113,0.17
			c0.043,0.058,0.07,0.113,0.113,0.17c0.043,0.058,0.069,0.111,0.112,0.168c0.041,0.058,0.07,0.113,0.113,0.171l0.947,1.456
			L332.84,360.85l0.934-1.457c0.043-0.069,0.086-0.127,0.128-0.196c0.043-0.07,0.085-0.128,0.127-0.197
			c0.043-0.071,0.085-0.129,0.128-0.199c0.042-0.069,0.085-0.127,0.127-0.196H228.511l-35.088,118.502l-1.117,3.747h463.161
			l-1.117-3.747L619.248,358.602"/>
	</g>
	<g>
		<defs>
			<polygon id="SVGID_19_" points="48.077,481.206 244.252,72.735 603.478,72.735 799.652,481.206 			"/>
		</defs>
		<clipPath id="SVGID_20_">
			<use xlink:href="#SVGID_19_"  overflow="visible"/>
		</clipPath>
		<path clip-path="url(#SVGID_20_)" fill="#FFFFFF" d="M311.43,477.091l6.251-43.264h212.368l6.252,43.264H311.43 M533.599,431.098
			H314.131l-6.888,45.992l-0.099,0.664l-0.368,2.418h234.176l-0.367-2.418l-0.1-0.664L533.599,431.098"/>
	</g>
	<g>
		<defs>
			<polygon id="SVGID_21_" points="48.077,481.206 244.252,72.735 603.478,72.735 799.652,481.206 			"/>
		</defs>
		<clipPath id="SVGID_22_">
			<use xlink:href="#SVGID_21_"  overflow="visible"/>
		</clipPath>
		<path clip-path="url(#SVGID_22_)" fill="#0F8934" d="M423.922,323.484h-0.1c-9.461,0-18.541,0.82-27.099,2.377
			c-8.584,1.556-16.66,3.847-24.027,6.816c-7.439,2.984-14.171,6.676-19.998,10.975c-5.897,4.355-10.891,9.363-14.694,14.964
			l171.736-0.127c-3.832-5.587-8.826-10.578-14.724-14.937c-5.825-4.285-12.571-7.961-20.012-10.945
			c-7.369-2.957-15.445-5.248-24.029-6.789C442.449,324.292,433.369,323.484,423.922,323.484"/>
	</g>
	<g>
		<defs>
			<polygon id="SVGID_23_" points="48.077,481.206 244.252,72.735 603.478,72.735 799.652,481.206 			"/>
		</defs>
		<clipPath id="SVGID_24_">
			<use xlink:href="#SVGID_23_"  overflow="visible"/>
		</clipPath>
		<path clip-path="url(#SVGID_24_)" fill="#FFFFFF" d="M338.004,358.602c3.818-5.586,8.797-10.594,14.694-14.963
			c5.827-4.301,12.559-7.977,19.998-10.975c7.367-2.957,15.442-5.262,24.027-6.818c8.543-1.541,17.638-2.361,27.099-2.375h0.1
			c9.447,0,18.527,0.807,27.068,2.348c8.586,1.541,16.66,3.832,24.028,6.789c7.439,2.984,14.173,6.646,20.013,10.945
			c5.912,4.342,10.903,9.35,14.723,14.936L338.004,358.602 M423.922,321.52h-0.1c-9.886,0-19.404,0.877-28.328,2.502
			c-8.98,1.642-17.423,4.06-25.117,7.187c-7.765,3.153-14.794,7.043-20.861,11.582c-6.15,4.61-11.328,9.899-15.26,15.813
			c-0.042,0.069-0.085,0.127-0.127,0.196c-0.043,0.07-0.085,0.127-0.127,0.199c-0.043,0.069-0.085,0.127-0.128,0.196
			c-0.042,0.07-0.085,0.128-0.127,0.197l-0.935,1.457l182.116-0.113l-0.947-1.457c-0.043-0.057-0.069-0.112-0.112-0.17
			c-0.041-0.057-0.07-0.11-0.113-0.168c-0.041-0.057-0.07-0.112-0.113-0.17c-0.041-0.057-0.069-0.112-0.11-0.17
			c-3.935-5.926-9.123-11.229-15.275-15.826c-6.066-4.539-13.109-8.43-20.889-11.582c-7.693-3.127-16.15-5.545-25.131-7.186
			C443.326,322.368,433.806,321.52,423.922,321.52"/>
	</g>
	<g>
		<defs>
			<polygon id="SVGID_25_" points="48.077,481.206 244.252,72.735 603.478,72.735 799.652,481.206 			"/>
		</defs>
		<clipPath id="SVGID_26_">
			<use xlink:href="#SVGID_25_"  overflow="visible"/>
		</clipPath>
		<path clip-path="url(#SVGID_26_)" fill="#FFFFFF" d="M423.879,392.939c-1.287,0-2.588,0.144-3.805,0.425
			c-1.215,0.282-2.349,0.706-3.322,1.272c-0.977,0.566-1.783,1.273-2.348,2.121c-0.566,0.85-0.894,1.854-0.877,2.998
			c-0.043,1.146,0.254,2.15,0.791,3.027c0.553,0.863,1.344,1.598,2.319,2.178s2.121,1.018,3.353,1.314
			c1.229,0.299,2.545,0.438,3.875,0.438c1.313,0,2.645-0.141,3.875-0.438c1.229-0.297,2.377-0.734,3.352-1.314
			c0.978-0.58,1.783-1.301,2.334-2.178c0.551-0.863,0.848-1.867,0.808-3.027c0.014-1.145-0.313-2.135-0.878-2.998
			c-0.565-0.848-1.372-1.555-2.348-2.121c-0.977-0.566-2.106-0.99-3.324-1.272C426.467,393.083,425.18,392.939,423.879,392.939"/>
	</g>
	<g>
		<defs>
			<polygon id="SVGID_27_" points="48.077,481.206 244.252,72.735 603.478,72.735 799.652,481.206 			"/>
		</defs>
		<clipPath id="SVGID_28_">
			<use xlink:href="#SVGID_27_"  overflow="visible"/>
		</clipPath>
		<polyline clip-path="url(#SVGID_28_)" fill="#FFFFFF" points="664.631,204.191 662.99,204.191 497.111,204.191 494.394,204.191 
			353.377,204.191 350.634,204.191 184.74,204.191 183.127,204.191 182.307,205.916 183.919,205.916 350.493,205.916 
			353.236,205.916 494.521,205.916 497.265,205.916 663.81,205.916 665.451,205.916 664.631,204.191 		"/>
	</g>
</g>
<path fill="#FFFFFF" d="M431.34,215.251c0.141,10.014-15.092,10.014-14.949,0C416.262,205.224,431.479,205.224,431.34,215.251z"/>
<circle fill="#DA6910" cx="287.431" cy="133.466" r="21.766"/>
<circle fill="#DA6910" cx="423.865" cy="416.793" r="21.766"/>
<circle fill="#DA6910" cx="427.543" cy="351.589" r="21.766"/>
<circle fill="#DA6910" cx="293.723" cy="368.355" r="21.766"/>
<circle fill="#DA6910" cx="556.185" cy="368.355" r="21.766"/>
<circle fill="#DA6910" cx="560.615" cy="133.466" r="21.766"/>
<circle fill="#DA6910" cx="423.52" cy="122.7" r="21.766"/>
<circle fill="#DA6910" cx="549.185" cy="207.731" r="21.766"/>
<ellipse fill="#DA6910" cx="299.548" cy="207.731" rx="21.766" ry="21.766"/>
<circle fill="#DA6910" cx="360.936" cy="286.97" r="21.766"/>
<circle fill="#DA6910" cx="502.173" cy="286.97" r="21.766"/>
<path fill="#110546" d="M319.378,492.806h-3.889v-1.399h9.476v1.399h-3.918v11.398h-1.669V492.806z"/>
<path fill="#110546" d="M325.912,499.906c0.043,2.262,1.484,3.194,3.154,3.194c1.201,0,1.923-0.213,2.546-0.467l0.281,1.203
	c-0.594,0.269-1.598,0.564-3.055,0.564c-2.828,0-4.525-1.867-4.525-4.64c0-2.771,1.626-4.948,4.313-4.948
	c2.998,0,3.805,2.645,3.805,4.327c0,0.339-0.043,0.607-0.057,0.777h-6.464L325.912,499.906L325.912,499.906z M330.806,498.703
	c0.016-1.062-0.438-2.715-2.318-2.715c-1.684,0-2.434,1.555-2.561,2.715H330.806z M331.216,491.037l-2.319,2.717h-1.201l1.669-2.717
	H331.216z"/>
<path fill="#110546" d="M341.045,503.851c-0.438,0.228-1.4,0.537-2.645,0.537c-2.772,0-4.582-1.881-4.582-4.694
	c0-2.828,1.938-4.879,4.936-4.879c0.99,0,1.867,0.239,2.319,0.467l-0.382,1.287c-0.396-0.228-1.032-0.439-1.938-0.439
	c-2.107,0-3.253,1.557-3.253,3.479c0,2.123,1.372,3.438,3.196,3.438c0.946,0,1.569-0.24,2.051-0.453L341.045,503.851z"/>
<path fill="#110546" d="M342.997,497.502c0-0.949-0.016-1.727-0.071-2.49h1.485l0.099,1.515h0.043
	c0.452-0.877,1.513-1.726,3.04-1.726c1.273,0,3.253,0.765,3.253,3.916v5.488h-1.669V498.9c0-1.484-0.551-2.716-2.121-2.716
	c-1.103,0-1.951,0.777-2.233,1.711c-0.07,0.214-0.113,0.496-0.113,0.779v5.529h-1.669v-6.703L342.997,497.502L342.997,497.502z"/>
<path fill="#110546" d="M355.401,492.424c0.014,0.566-0.396,1.033-1.063,1.033c-0.594,0-1.004-0.453-1.004-1.033
	c0-0.594,0.438-1.047,1.047-1.047C355.004,491.377,355.401,491.83,355.401,492.424z M353.534,504.205v-9.193h1.669v9.193H353.534z"
	/>
<path fill="#110546" d="M364.536,503.851c-0.438,0.228-1.4,0.537-2.646,0.537c-2.771,0-4.582-1.881-4.582-4.694
	c0-2.828,1.938-4.879,4.937-4.879c0.99,0,1.867,0.239,2.318,0.467l-0.382,1.287c-0.396-0.228-1.031-0.439-1.938-0.439
	c-2.107,0-3.253,1.557-3.253,3.479c0,2.123,1.372,3.438,3.195,3.438c0.947,0,1.57-0.24,2.052-0.453L364.536,503.851z"/>
<path fill="#110546" d="M374.691,499.523c0,3.395-2.361,4.879-4.582,4.879c-2.489,0-4.412-1.824-4.412-4.724
	c0-3.084,2.008-4.879,4.554-4.879C372.91,494.801,374.691,496.709,374.691,499.523z M367.408,499.623
	c0,2.008,1.16,3.535,2.786,3.535c1.598,0,2.785-1.5,2.785-3.564c0-1.555-0.777-3.535-2.758-3.535
	C368.242,496.058,367.408,497.869,367.408,499.623z"/>
<path fill="#110546" d="M376.403,496.525c0-0.707,0.479-1.203,1.146-1.203c0.664,0,1.104,0.496,1.117,1.203
	c0,0.664-0.438,1.174-1.146,1.174C376.854,497.699,376.403,497.189,376.403,496.525z M376.403,503.228c0-0.707,0.479-1.2,1.146-1.2
	c0.664,0,1.104,0.493,1.117,1.2c0,0.666-0.438,1.175-1.146,1.175C376.854,504.402,376.403,503.894,376.403,503.228z"/>
<g>
	<g>
		<path d="M397.703,398.051c-3.032-1.66-4.635-2.393-7.981-3.62c0.456-0.456,0.686-0.678,1.153-1.115
			c1.604,0.681,2.388,1.048,3.918,1.828c1.039,0.542,1.96,1.071,2.764,1.62c0.009-0.007,0.012-0.013,0.021-0.02
			c-0.387-0.894-0.723-1.935-1.002-3.057c-0.438-1.686-0.628-2.544-0.953-4.28c0.496-0.357,0.746-0.529,1.251-0.869
			c0.494,3.566,0.869,5.309,1.851,8.666C398.312,397.535,398.107,397.704,397.703,398.051z"/>
		<path d="M405.12,391.46c0.225,0.45,0.47,0.878,0.707,1.203c-0.378,0.188-0.566,0.284-0.94,0.483
			c-0.175-0.238-0.264-0.355-0.44-0.593c-0.015,0.008-0.021,0.011-0.036,0.019c-0.097,0.569-0.521,1.263-1.315,1.742
			c-1.128,0.681-2.146,0.388-2.615-0.309c-0.784-1.164,0.048-2.723,2.467-4.012c-0.023-0.042-0.035-0.063-0.058-0.104
			c-0.227-0.422-0.801-1.132-2.092-0.366c-0.6,0.355-1.132,0.873-1.415,1.385c-0.255-0.172-0.383-0.259-0.642-0.428
			c0.351-0.59,1.02-1.254,1.835-1.729c1.993-1.16,3.052-0.273,3.572,0.768C404.538,390.296,404.731,390.684,405.12,391.46z
			 M403.318,390.626c-1.229,0.634-2.466,1.648-1.865,2.602c0.371,0.589,0.98,0.574,1.498,0.267c0.754-0.447,1.016-1.134,0.955-1.659
			c-0.014-0.115-0.06-0.227-0.111-0.321C403.604,391.158,403.509,390.981,403.318,390.626z"/>
		<path d="M405.732,388.029c-0.248-0.56-0.455-0.993-0.69-1.413c0.435-0.193,0.652-0.285,1.091-0.466
			c0.173,0.339,0.261,0.509,0.433,0.848c0.011-0.005,0.015-0.006,0.026-0.011c0.125-0.635,0.719-1.464,1.866-1.864
			c0.96-0.335,2.604-0.32,3.153,1.593c0.382,1.333,0.573,1.999,0.956,3.332c-0.446,0.128-0.668,0.196-1.111,0.337
			c-0.407-1.275-0.609-1.914-1.016-3.189c-0.284-0.892-0.94-1.528-2.105-1.109c-0.8,0.288-1.231,1.008-1.238,1.629
			c-0.001,0.142,0.039,0.334,0.103,0.489c0.529,1.298,0.795,1.944,1.324,3.241c-0.433,0.176-0.648,0.269-1.077,0.458
			C406.761,390.354,406.418,389.578,405.732,388.029z"/>
		<path d="M422.351,380.016c0.068,2.806,0.101,4.208,0.169,7.014c0.013,0.516,0.039,1.104,0.087,1.498
			c-0.413,0.01-0.62,0.015-1.032,0.035c-0.04-0.401-0.058-0.601-0.1-1.002c-0.011,0.001-0.015,0.001-0.025,0.002
			c-0.329,0.665-1.049,1.194-2.073,1.302c-1.517,0.159-2.888-0.802-3.197-2.53c-0.341-1.905,0.946-3.342,2.696-3.52
			c1.122-0.114,1.901,0.267,2.235,0.705c0.012-0.001,0.017-0.001,0.029-0.002c-0.074-1.379-0.11-2.067-0.183-3.447
			C421.513,380.041,421.792,380.029,422.351,380.016z M421.225,385.134c-0.008-0.144-0.034-0.312-0.083-0.452
			c-0.226-0.642-0.963-1.159-1.933-1.066c-1.337,0.129-1.987,1.204-1.805,2.462c0.17,1.175,0.955,2.028,2.2,1.908
			c0.782-0.075,1.466-0.598,1.643-1.388c0.033-0.146,0.04-0.289,0.031-0.457C421.257,385.738,421.246,385.536,421.225,385.134z"/>
		<path d="M425.229,385.828c-0.03,1.427,0.943,2.05,2.109,2.16c0.835,0.079,1.368,0.02,1.815-0.076
			c0.044,0.307,0.062,0.456,0.103,0.763c-0.428,0.108-1.15,0.214-2.15,0.123c-1.922-0.174-3.082-1.344-3.061-3.083
			c0.021-1.763,1.349-3.157,3.461-2.974c2.366,0.206,2.717,2.005,2.555,3.06c-0.033,0.213-0.072,0.378-0.118,0.492
			C428.067,386.003,427.12,385.909,425.229,385.828z M428.901,385.373c0.096-0.652-0.122-1.767-1.565-1.889
			c-1.326-0.112-1.932,0.865-2.061,1.592C426.729,385.135,427.455,385.192,428.901,385.373z"/>
		<path d="M431.745,385.299c0.129-0.671,0.225-1.251,0.281-1.789c0.455,0.086,0.683,0.133,1.136,0.23
			c-0.073,0.45-0.107,0.675-0.182,1.125c0.018,0.004,0.024,0.006,0.042,0.01c0.481-0.692,1.392-0.992,2.254-0.764
			c0.132,0.035,0.229,0.076,0.34,0.131c-0.104,0.379-0.157,0.568-0.262,0.947c-0.14-0.051-0.267-0.097-0.438-0.142
			c-0.887-0.233-1.665,0.184-1.983,0.899c-0.063,0.143-0.115,0.308-0.154,0.483c-0.268,1.208-0.4,1.813-0.668,3.021
			c-0.451-0.1-0.676-0.146-1.129-0.232C431.288,387.651,431.438,386.866,431.745,385.299z"/>
		<path d="M438.156,389.938c0.391,0.47,1.007,0.962,1.75,1.291c1.103,0.488,1.975,0.322,2.346-0.418
			c0.333-0.665,0.086-1.314-0.955-2.221c-1.256-1.094-1.972-2.085-1.572-3.139c0.446-1.178,2.087-1.587,3.998-0.699
			c0.991,0.461,1.635,1.014,1.951,1.41c-0.295,0.229-0.439,0.347-0.729,0.58c-0.222-0.29-0.756-0.818-1.63-1.224
			c-1.317-0.61-2.084-0.194-2.295,0.315c-0.288,0.698,0.16,1.267,1.225,2.242c1.308,1.198,1.715,2.188,1.152,3.232
			c-0.592,1.099-1.989,1.537-3.918,0.688c-0.788-0.347-1.571-0.912-1.921-1.35C437.795,390.361,437.914,390.22,438.156,389.938z"/>
		<path d="M448.462,395.551c-0.306,0.4-0.581,0.811-0.768,1.167c-0.344-0.265-0.517-0.395-0.866-0.648
			c0.137-0.263,0.204-0.394,0.339-0.657c-0.014-0.01-0.021-0.015-0.035-0.024c-0.559,0.159-1.376,0.076-2.159-0.43
			c-1.111-0.719-1.286-1.756-0.867-2.483c0.7-1.217,2.438-1.175,4.697,0.463c0.028-0.039,0.039-0.059,0.067-0.098
			c0.279-0.39,0.656-1.225-0.608-2.055c-0.587-0.386-1.283-0.636-1.865-0.664c0.042-0.305,0.064-0.457,0.104-0.763
			c0.68,0.054,1.569,0.362,2.36,0.892c1.934,1.293,1.627,2.651,0.921,3.576C449.254,394.517,448.989,394.86,448.462,395.551z
			 M448.401,393.549c-1.13-0.842-2.585-1.505-3.177-0.545c-0.365,0.593-0.083,1.131,0.424,1.464c0.737,0.484,1.477,0.424,1.924,0.14
			c0.098-0.063,0.18-0.152,0.242-0.24C448.05,394.04,448.166,393.876,448.401,393.549z"/>
		<path d="M451.725,394.838c0.441-0.522,0.807-0.982,1.118-1.426c0.374,0.315,0.561,0.474,0.928,0.801
			c-0.284,0.357-0.427,0.538-0.712,0.895c0.014,0.013,0.02,0.02,0.033,0.032c0.774-0.353,1.751-0.132,2.432,0.538
			c0.104,0.102,0.176,0.19,0.25,0.299c-0.278,0.278-0.417,0.416-0.695,0.694c-0.104-0.12-0.197-0.227-0.332-0.359
			c-0.701-0.686-1.617-0.736-2.253-0.275c-0.126,0.092-0.25,0.208-0.37,0.342c-0.827,0.921-1.239,1.385-2.066,2.306
			c-0.365-0.328-0.55-0.488-0.922-0.803C450.17,396.663,450.689,396.055,451.725,394.838z"/>
	</g>
</g>
<g>
	<g>
		<path d="M249.276,350.445c0.426-0.578,1.117-1.347,1.813-1.986c1.097-1.009,1.989-1.466,2.781-1.542
			c0.616-0.06,1.207,0.172,1.606,0.666c0.664,0.82,0.446,1.904-0.152,2.803c0.009,0.011,0.015,0.016,0.024,0.026
			c0.714-0.331,1.439-0.179,2.154,0.316c0.958,0.663,1.619,1.141,1.954,1.272c-0.387,0.31-0.58,0.468-0.961,0.787
			c-0.263-0.077-0.869-0.475-1.72-1.072c-0.943-0.661-1.638-0.624-2.525,0.143c-0.358,0.329-0.537,0.495-0.89,0.833
			c0.968,1.013,1.452,1.518,2.42,2.53c-0.353,0.337-0.527,0.508-0.874,0.854C252.654,353.823,251.528,352.698,249.276,350.445z
			 M252.813,352.119c0.389-0.372,0.585-0.555,0.98-0.916c1.031-0.944,1.312-1.974,0.715-2.679c-0.674-0.797-1.727-0.516-2.799,0.468
			c-0.49,0.449-0.789,0.806-0.928,1.005C251.595,350.847,252,351.27,252.813,352.119z"/>
		<path d="M262.784,349.696c-1.454,0.997-3.259,0.949-4.381-0.502c-1.188-1.537-0.602-3.447,1.051-4.577
			c1.729-1.181,3.563-0.846,4.472,0.666c1.112,1.851,0.155,3.524-1.131,4.406C262.79,349.692,262.788,349.693,262.784,349.696z
			 M262.371,349.02c0.953-0.653,1.178-1.909,0.473-3.024c-0.525-0.832-1.705-1.571-2.98-0.698c-1.264,0.864-1.115,2.209-0.46,3.097
			c0.755,1.023,1.992,1.295,2.956,0.634C262.364,349.024,262.366,349.022,262.371,349.02z"/>
		<path d="M264.664,343.379c-0.3-0.532-0.548-0.941-0.823-1.337c0.403-0.229,0.605-0.341,1.012-0.561
			c0.206,0.319,0.31,0.479,0.515,0.8c0.01-0.006,0.015-0.009,0.025-0.015c0.052-0.642,0.535-1.515,1.597-2.034
			c0.889-0.435,2.482-0.618,3.282,1.204c0.557,1.27,0.835,1.901,1.393,3.171c-0.428,0.188-0.642,0.285-1.067,0.482
			c-0.564-1.214-0.846-1.817-1.41-3.032c-0.394-0.849-1.114-1.403-2.198-0.863c-0.744,0.37-1.083,1.126-1.021,1.742
			c0.014,0.141,0.076,0.329,0.156,0.478c0.662,1.234,0.992,1.851,1.654,3.085c-0.416,0.223-0.623,0.336-1.034,0.568
			C265.912,345.593,265.496,344.854,264.664,343.379z"/>
		<path d="M277.257,341.057c0.147,0.481,0.317,0.942,0.495,1.302c-0.398,0.121-0.596,0.186-0.993,0.314
			c-0.13-0.266-0.196-0.399-0.327-0.664c-0.015,0.005-0.023,0.01-0.039,0.015c-0.188,0.541-0.717,1.144-1.571,1.457
			c-1.213,0.445-2.136-0.06-2.454-0.837c-0.531-1.3,0.532-2.605,3.036-3.415c-0.015-0.046-0.023-0.067-0.038-0.113
			c-0.15-0.455-0.583-1.245-1.922-0.76c-0.622,0.226-1.208,0.61-1.562,1.046c-0.21-0.222-0.317-0.332-0.53-0.552
			c0.429-0.494,1.167-0.995,2.008-1.293c2.055-0.729,2.922,0.313,3.263,1.425C276.878,339.812,277.003,340.227,277.257,341.057z
			 M275.66,339.915c-1.275,0.393-2.624,1.125-2.22,2.177c0.25,0.649,0.836,0.759,1.389,0.56c0.805-0.29,1.172-0.917,1.199-1.443
			c0.005-0.115-0.02-0.232-0.053-0.335C275.849,340.49,275.786,340.298,275.66,339.915z"/>
		<path d="M277.237,333.654c0.516-0.139,0.775-0.207,1.294-0.334c0.816,3.308,1.224,4.962,2.04,8.267
			c-0.449,0.11-0.672,0.167-1.119,0.287C278.566,338.586,278.122,336.944,277.237,333.654z"/>
		<path d="M286.928,331.848c0.301,2.791,0.45,4.185,0.751,6.976c0.055,0.513,0.132,1.093,0.213,1.482
			c-0.411,0.044-0.616,0.068-1.026,0.119c-0.071-0.397-0.105-0.594-0.177-0.99c-0.011,0.001-0.017,0.003-0.027,0.004
			c-0.275,0.688-0.956,1.27-1.973,1.438c-1.506,0.251-2.919-0.656-3.3-2.37c-0.42-1.89,0.753-3.363,2.427-3.638
			c1.074-0.177,1.85,0.148,2.206,0.563c0.011-0.002,0.018-0.002,0.029-0.004c-0.177-1.37-0.265-2.055-0.442-3.426
			C286.135,331.935,286.399,331.904,286.928,331.848z M286.257,337.033c-0.019-0.143-0.055-0.309-0.114-0.445
			c-0.268-0.624-1.021-1.091-1.954-0.941c-1.285,0.206-1.858,1.306-1.613,2.553c0.229,1.165,1.053,1.984,2.284,1.787
			c0.772-0.124,1.416-0.692,1.53-1.493c0.022-0.148,0.017-0.293-0.004-0.46C286.334,337.634,286.309,337.433,286.257,337.033z"/>
		<path d="M292.376,331.931c0.521-0.011,0.782-0.012,1.303-0.012c0.001,1.56,0.002,2.338,0.003,3.897c0.017,0,0.024,0,0.041,0
			c0.253-0.313,0.511-0.602,0.756-0.862c1.19-1.199,1.814-1.782,3.121-2.918c0.646,0.04,0.969,0.065,1.614,0.121
			c-1.577,1.24-2.328,1.883-3.749,3.214c1.435,1.903,2.094,2.878,3.292,4.856c-0.536-0.049-0.804-0.069-1.34-0.105
			c-1.045-1.661-1.61-2.479-2.824-4.086c-0.369,0.35-0.551,0.524-0.909,0.88c0.001,1.233,0.001,1.849,0.002,3.081
			c-0.454,0-0.681,0.004-1.135,0.014C292.48,336.779,292.445,335.164,292.376,331.931z"/>
		<path d="M302.1,340.771c-1.677-0.258-2.888-1.523-2.708-3.35c0.191-1.934,1.846-2.928,3.751-2.631
			c1.992,0.311,3.071,1.797,2.702,3.521c-0.453,2.11-2.249,2.688-3.732,2.46C302.107,340.771,302.104,340.772,302.1,340.771z
			 M302.261,339.998c1.099,0.17,2.097-0.603,2.345-1.898c0.185-0.966-0.157-2.304-1.627-2.532c-1.457-0.226-2.235,0.855-2.366,1.95
			c-0.151,1.263,0.522,2.305,1.635,2.477C302.252,339.995,302.255,339.997,302.261,339.998z"/>
		<path d="M307.97,339.057c-0.326,1.391,0.495,2.2,1.62,2.534c0.805,0.239,1.338,0.277,1.795,0.265
			c-0.013,0.31-0.018,0.463-0.033,0.771c-0.443,0.028-1.179-0.004-2.149-0.289c-1.864-0.548-2.748-1.948-2.352-3.643
			c0.401-1.717,1.953-2.793,3.927-2.219c2.211,0.644,2.226,2.456,1.878,3.465c-0.07,0.204-0.138,0.36-0.204,0.465
			C310.679,339.793,309.78,339.521,307.97,339.057z M311.612,339.315c0.215-0.624,0.214-1.749-1.142-2.141
			c-1.245-0.36-2.023,0.467-2.299,1.151C309.557,338.679,310.246,338.877,311.612,339.315z"/>
		<path d="M314.452,339.504c0.214-0.572,0.356-1.032,0.497-1.492c0.422,0.157,0.631,0.236,1.051,0.401
			c-0.116,0.356-0.174,0.535-0.29,0.892c0.016,0.007,0.023,0.009,0.04,0.016c0.565-0.37,1.378-0.604,2.469-0.125
			c0.876,0.385,1.341,1.137,1.319,1.885c0.01,0.005,0.016,0.009,0.026,0.014c0.341-0.209,0.71-0.295,1.053-0.326
			c0.498-0.045,0.975,0.031,1.578,0.351c0.852,0.451,1.828,1.592,0.815,3.335c-0.687,1.183-1.031,1.772-1.718,2.955
			c-0.4-0.232-0.6-0.345-1.004-0.568c0.636-1.15,0.954-1.729,1.59-2.879c0.545-0.987,0.418-1.817-0.489-2.289
			c-0.661-0.344-1.386-0.191-1.783,0.162c-0.12,0.106-0.243,0.267-0.321,0.429c-0.629,1.295-0.943,1.941-1.572,3.236
			c-0.413-0.2-0.62-0.296-1.036-0.487c0.582-1.264,0.872-1.896,1.454-3.16c0.391-0.85,0.22-1.663-0.672-2.047
			c-0.72-0.31-1.471-0.016-1.852,0.375c-0.116,0.118-0.216,0.276-0.283,0.443c-0.518,1.302-0.776,1.952-1.294,3.254
			c-0.423-0.168-0.636-0.251-1.063-0.41C313.563,341.881,313.858,341.091,314.452,339.504z"/>
		<path d="M327.588,349.926c-0.303,0.402-0.575,0.811-0.759,1.168c-0.345-0.262-0.519-0.389-0.868-0.643
			c0.137-0.263,0.204-0.394,0.34-0.656c-0.014-0.01-0.02-0.013-0.034-0.022c-0.558,0.159-1.378,0.069-2.155-0.45
			c-1.103-0.737-1.247-1.782-0.807-2.497c0.736-1.195,2.433-1.102,4.635,0.501c0.028-0.039,0.042-0.059,0.07-0.098
			c0.28-0.39,0.657-1.212-0.558-2.031c-0.564-0.381-1.234-0.635-1.804-0.669c0.052-0.302,0.077-0.454,0.127-0.757
			c0.662,0.062,1.519,0.37,2.277,0.89c1.852,1.269,1.541,2.601,0.84,3.53C328.372,348.885,328.11,349.232,327.588,349.926z
			 M327.536,347.936c-1.105-0.828-2.52-1.505-3.131-0.559c-0.377,0.585-0.111,1.128,0.39,1.467c0.729,0.492,1.465,0.432,1.912,0.147
			c0.097-0.063,0.178-0.149,0.241-0.237C327.182,348.427,327.3,348.263,327.536,347.936z"/>
		<path d="M330.943,348.946c0.385-0.476,0.676-0.859,0.942-1.261c0.369,0.299,0.553,0.451,0.918,0.759
			c-0.221,0.31-0.332,0.464-0.553,0.773c0.009,0.008,0.014,0.013,0.023,0.021c0.624-0.179,1.632-0.035,2.543,0.801
			c0.763,0.7,1.58,2.181,0.172,3.588c-0.98,0.98-1.47,1.469-2.451,2.449c-0.351-0.351-0.527-0.524-0.883-0.865
			c0.925-0.968,1.386-1.449,2.311-2.417c0.646-0.677,0.88-1.565-0.057-2.413c-0.643-0.582-1.491-0.638-2.047-0.36
			c-0.127,0.063-0.275,0.192-0.384,0.32c-0.906,1.068-1.357,1.604-2.263,2.672c-0.372-0.315-0.559-0.474-0.936-0.779
			C329.345,350.917,329.877,350.263,330.943,348.946z"/>
	</g>
</g>
<g>
	<g>
		<path d="M516.698,345.778c1.691-1.691,2.574-2.481,4.393-3.954c0.22,0.272,0.329,0.408,0.549,0.681
			c-1.356,1.099-2.018,1.677-3.303,2.898c0.739,0.779,1.111,1.17,1.851,1.949c1.129-1.073,1.709-1.586,2.896-2.559
			c0.219,0.268,0.328,0.401,0.547,0.669c-1.167,0.957-1.738,1.461-2.849,2.517c1.007,1.062,1.511,1.592,2.519,2.653
			c-0.357,0.34-0.533,0.512-0.884,0.862C520.129,349.209,518.985,348.064,516.698,345.778z"/>
		<path d="M524.801,344.11c-0.414-0.544-0.783-1.003-1.147-1.403c0.376-0.288,0.567-0.431,0.948-0.71
			c0.288,0.354,0.431,0.531,0.718,0.886c0.015-0.011,0.023-0.017,0.038-0.027c-0.191-0.824,0.197-1.712,0.945-2.214
			c0.114-0.076,0.21-0.125,0.324-0.172c0.217,0.328,0.324,0.492,0.541,0.82c-0.132,0.073-0.25,0.139-0.398,0.239
			c-0.771,0.52-0.987,1.39-0.666,2.105c0.063,0.143,0.154,0.287,0.26,0.433c0.726,1.003,1.089,1.504,1.815,2.507
			c-0.389,0.282-0.583,0.427-0.967,0.72C526.247,346.021,525.765,345.385,524.801,344.11z"/>
		<path d="M534.167,341.311c0.226,0.45,0.474,0.875,0.71,1.199c-0.378,0.188-0.567,0.285-0.941,0.482
			c-0.174-0.239-0.261-0.357-0.437-0.596c-0.015,0.008-0.022,0.011-0.037,0.019c-0.099,0.568-0.525,1.261-1.325,1.729
			c-1.135,0.665-2.145,0.347-2.599-0.359c-0.759-1.181,0.085-2.695,2.473-3.953c-0.022-0.042-0.036-0.063-0.059-0.105
			c-0.226-0.424-0.79-1.131-2.062-0.396c-0.591,0.342-1.115,0.84-1.398,1.341c-0.25-0.178-0.376-0.266-0.629-0.441
			c0.35-0.575,1.01-1.217,1.811-1.672c1.957-1.112,3-0.232,3.521,0.809C533.585,340.144,533.777,340.534,534.167,341.311z
			 M532.379,340.464c-1.217,0.62-2.449,1.604-1.863,2.566c0.361,0.595,0.967,0.589,1.486,0.289c0.756-0.437,1.018-1.116,0.958-1.642
			c-0.014-0.115-0.057-0.228-0.107-0.323C532.663,340.998,532.568,340.82,532.379,340.464z"/>
		<path d="M534.746,337.887c-0.252-0.557-0.467-0.991-0.705-1.409c0.424-0.192,0.64-0.285,1.066-0.468
			c0.177,0.337,0.264,0.506,0.439,0.843c0.011-0.005,0.015-0.006,0.025-0.011c0.111-0.634,0.678-1.461,1.792-1.877
			c0.933-0.349,2.546-0.377,3.154,1.52c0.424,1.32,0.638,1.98,1.063,3.301c-0.442,0.142-0.663,0.215-1.103,0.367
			c-0.441-1.265-0.661-1.892-1.102-3.156c-0.308-0.884-0.971-1.508-2.105-1.073c-0.779,0.298-1.191,1.021-1.188,1.64
			c0.001,0.141,0.049,0.331,0.114,0.485c0.546,1.29,0.818,1.936,1.365,3.226c-0.431,0.182-0.645,0.276-1.071,0.47
			C535.793,340.199,535.444,339.43,534.746,337.887z"/>
		<path d="M543.735,335.903c0.011-0.003,0.017-0.003,0.027-0.006c0.112-0.238,0.27-0.55,0.418-0.782
			c0.603-0.968,0.92-1.447,1.589-2.396c0.605-0.119,0.908-0.174,1.517-0.275c-0.925,1.123-1.359,1.693-2.18,2.853
			c1.466,1.077,2.165,1.642,3.483,2.815c-0.553,0.089-0.83,0.136-1.381,0.24c-1.065-0.936-1.623-1.388-2.78-2.262
			c-0.187,0.296-0.277,0.446-0.457,0.744c0.214,0.847,0.321,1.269,0.535,2.115c-0.448,0.112-0.673,0.17-1.119,0.294
			c-0.914-3.283-1.371-4.922-2.283-8.203c0.525-0.146,0.791-0.217,1.319-0.35C542.949,332.775,543.21,333.818,543.735,335.903z"/>
		<path d="M557.871,329.02c-0.084,2.805-0.126,4.207-0.21,7.012c-0.016,0.516-0.021,1.102,0.005,1.499
			c-0.412-0.013-0.617-0.018-1.029-0.021c-0.017-0.403-0.026-0.604-0.044-1.007c-0.011,0-0.016,0-0.026,0
			c-0.365,0.645-1.115,1.132-2.144,1.17c-1.522,0.056-2.811-1.012-2.981-2.761c-0.188-1.928,1.173-3.249,2.89-3.308
			c1.101-0.038,1.837,0.386,2.138,0.844c0.012,0,0.015,0,0.026,0c0.008-1.382,0.015-2.071,0.022-3.453
			C557.059,328.997,557.33,329.003,557.871,329.02z M556.486,334.068c0.001-0.145-0.013-0.315-0.053-0.459
			c-0.184-0.654-0.877-1.218-1.83-1.189c-1.314,0.039-2.025,1.062-1.938,2.33c0.083,1.185,0.797,2.099,2.043,2.061
			c0.781-0.023,1.493-0.503,1.715-1.282c0.042-0.144,0.056-0.286,0.057-0.454C556.482,334.671,556.484,334.472,556.486,334.068z"/>
		<path d="M560.4,334.963c-0.092,1.424,0.854,2.088,2.012,2.237c0.829,0.106,1.358,0.059,1.806-0.025
			c0.035,0.308,0.055,0.461,0.087,0.769c-0.431,0.097-1.158,0.181-2.155,0.056c-1.915-0.24-3.016-1.47-2.911-3.205
			c0.106-1.759,1.466-3.086,3.524-2.833c2.306,0.283,2.602,2.075,2.413,3.126c-0.038,0.213-0.08,0.378-0.128,0.491
			C563.201,335.245,562.267,335.123,560.4,334.963z M564.046,334.633c0.114-0.649-0.067-1.764-1.478-1.934
			c-1.296-0.156-1.929,0.789-2.088,1.51C561.911,334.329,562.625,334.413,564.046,334.633z"/>
		<path d="M570.854,331.499c0.591,0.049,1.517,0.24,2.398,0.522c1.278,0.408,2.032,0.907,2.479,1.485
			c0.37,0.478,0.524,1.049,0.29,1.641c-0.291,0.736-1.142,1.128-2.193,1.069c-0.005,0.014-0.007,0.021-0.012,0.034
			c0.808,0.48,1.568,1.471,1.119,2.583c-0.261,0.646-0.753,1.019-1.333,1.218c-0.76,0.261-1.778,0.129-3.16-0.303
			c-0.754-0.235-1.323-0.44-1.679-0.587C569.602,336.097,570.019,334.564,570.854,331.499z M571.193,335.038
			c0.438,0.13,0.655,0.198,1.091,0.338c1.253,0.403,2.19,0.133,2.459-0.599c0.322-0.878-0.389-1.559-1.663-1.968
			c-0.579-0.186-0.924-0.25-1.138-0.276C571.643,333.536,571.493,334.036,571.193,335.038z M570.089,338.739
			c0.221,0.104,0.521,0.207,0.917,0.334c1.147,0.367,2.333,0.39,2.746-0.712c0.383-1.022-0.512-1.862-1.802-2.274
			c-0.391-0.125-0.586-0.186-0.979-0.303C570.618,336.966,570.442,337.558,570.089,338.739z"/>
		<path d="M577.842,342.833c-1.543-0.788-2.332-2.369-1.605-4.055c0.77-1.784,2.694-2.211,4.473-1.298
			c1.859,0.955,2.449,2.749,1.543,4.262c-1.109,1.852-3.032,1.795-4.397,1.098C577.85,342.838,577.847,342.835,577.842,342.833z
			 M578.238,342.146c1.014,0.519,2.226,0.122,2.874-1.027c0.483-0.856,0.566-2.252-0.805-2.954
			c-1.357-0.695-2.449,0.091-2.911,1.093c-0.532,1.155-0.195,2.358,0.83,2.883C578.231,342.144,578.233,342.144,578.238,342.146z"/>
		<path d="M584.09,343.189c-0.765,1.205-0.228,2.26,0.756,2.982c0.704,0.518,1.213,0.75,1.662,0.907
			c-0.114,0.289-0.173,0.434-0.29,0.722c-0.439-0.138-1.146-0.438-1.993-1.058c-1.629-1.189-2.037-2.815-1.111-4.288
			c0.938-1.492,2.807-1.98,4.56-0.709c1.964,1.424,1.381,3.165,0.707,3.993c-0.137,0.167-0.256,0.288-0.354,0.363
			C586.496,344.851,585.707,344.271,584.09,343.189z M587.562,344.753c0.415-0.513,0.785-1.588-0.417-2.456
			c-1.104-0.798-2.136-0.283-2.625,0.27C585.761,343.392,586.37,343.827,587.562,344.753z"/>
		<path d="M590.134,346.201c0.448-0.516,0.821-0.971,1.14-1.409c0.362,0.314,0.541,0.475,0.897,0.799
			c-0.287,0.354-0.432,0.531-0.72,0.885c0.014,0.013,0.021,0.017,0.035,0.029c0.773-0.35,1.733-0.13,2.398,0.525
			c0.102,0.1,0.171,0.187,0.243,0.293c-0.278,0.278-0.416,0.415-0.694,0.693c-0.102-0.118-0.193-0.225-0.326-0.354
			c-0.687-0.674-1.592-0.72-2.23-0.264c-0.127,0.091-0.25,0.207-0.372,0.34c-0.835,0.913-1.252,1.37-2.087,2.283
			c-0.362-0.332-0.547-0.494-0.915-0.815C588.555,348.004,589.081,347.403,590.134,346.201z"/>
	</g>
</g>
<g>
	<g>
		<path d="M398.287,326.759c0.467-0.62,1.229-1.438,1.999-2.108c1.212-1.056,2.188-1.507,3.019-1.563
			c0.647-0.044,1.236,0.219,1.602,0.738c0.607,0.863,0.29,1.944-0.378,2.836c0.009,0.012,0.013,0.019,0.022,0.03
			c0.749-0.314,1.477-0.125,2.163,0.412c0.917,0.719,1.542,1.24,1.865,1.396c-0.403,0.279-0.604,0.423-0.999,0.718
			c-0.257-0.093-0.838-0.524-1.662-1.161c-0.912-0.704-1.627-0.693-2.565,0.075c-0.38,0.33-0.568,0.499-0.939,0.845
			c0.953,1.026,1.431,1.537,2.384,2.563c-0.356,0.332-0.532,0.502-0.879,0.849C401.666,330.136,400.54,329.013,398.287,326.759z
			 M401.875,328.398c0.412-0.383,0.621-0.572,1.042-0.937c1.103-0.953,1.469-1.978,0.911-2.713c-0.631-0.832-1.754-0.57-2.932,0.45
			c-0.538,0.466-0.867,0.839-1.022,1.047C400.675,327.107,401.074,327.537,401.875,328.398z"/>
		<path d="M413.839,323.809c0.235,0.552,0.454,1.029,0.668,1.433c-0.382,0.162-0.572,0.245-0.95,0.419
			c-0.183-0.333-0.275-0.494-0.459-0.826c-0.01,0.005-0.015,0.005-0.025,0.01c-0.077,0.551-0.438,1.387-1.448,1.938
			c-0.892,0.486-2.208,0.705-3.295-1.006c-0.728-1.146-1.091-1.722-1.819-2.868c0.472-0.301,0.709-0.444,1.19-0.727
			c0.648,1.104,0.972,1.656,1.62,2.762c0.558,0.952,1.278,1.39,2.235,0.883c0.714-0.379,1.001-1.063,1.004-1.589
			c0.001-0.159-0.04-0.352-0.126-0.536c-0.602-1.287-0.903-1.932-1.505-3.218c0.499-0.233,0.751-0.346,1.257-0.561
			C412.847,321.476,413.178,322.254,413.839,323.809z"/>
		<path d="M421.116,321.613c0.11,0.59,0.221,1.105,0.343,1.546c-0.402,0.074-0.604,0.114-1.004,0.201
			c-0.106-0.365-0.16-0.546-0.268-0.91c-0.011,0.002-0.015,0.004-0.025,0.006c-0.189,0.521-0.716,1.257-1.801,1.567
			c-0.958,0.274-2.264,0.188-2.95-1.719c-0.459-1.277-0.69-1.919-1.15-3.196c0.515-0.185,0.772-0.271,1.292-0.438
			c0.392,1.22,0.587,1.827,0.979,3.047c0.337,1.051,0.937,1.64,1.962,1.359c0.766-0.21,1.187-0.814,1.3-1.326
			c0.034-0.155,0.035-0.352-0.009-0.551c-0.309-1.387-0.464-2.079-0.773-3.465c0.53-0.117,0.795-0.173,1.328-0.271
			C420.651,319.123,420.806,319.953,421.116,321.613z"/>
		<path d="M429.065,314.117c-0.103,2.804-0.153,4.208-0.255,7.012c-0.019,0.516-0.026,1.102-0.002,1.499
			c-0.413-0.016-0.62-0.021-1.033-0.023c-0.018-0.403-0.026-0.603-0.046-1.006c-0.011,0-0.014,0-0.024,0
			c-0.367,0.646-1.114,1.136-2.143,1.196c-1.521,0.09-2.861-0.912-3.114-2.65c-0.279-1.917,1.089-3.313,2.889-3.413
			c1.153-0.064,1.935,0.356,2.25,0.813c0.013,0,0.016,0.002,0.028,0.002c0.003-1.382,0.005-2.075,0.008-3.457
			C428.2,314.091,428.488,314.097,429.065,314.117z M427.612,319.164c0-0.145-0.015-0.313-0.058-0.457
			c-0.193-0.653-0.921-1.213-1.915-1.164c-1.369,0.067-2.077,1.121-1.942,2.386c0.126,1.181,0.881,2.062,2.135,1.999
			c0.787-0.039,1.502-0.522,1.723-1.302c0.042-0.145,0.058-0.288,0.058-0.456C427.613,319.768,427.611,319.566,427.612,319.164z"/>
		<path d="M434.888,315.174c0.559,0.1,0.835,0.154,1.39,0.273c-0.329,1.524-0.494,2.286-0.822,3.811
			c0.018,0.004,0.028,0.004,0.046,0.008c0.326-0.249,0.651-0.467,0.962-0.664c1.494-0.893,2.287-1.306,3.948-2.042
			c0.674,0.219,1.01,0.335,1.676,0.584c-1.985,0.724-2.929,1.15-4.697,2.1c1.043,2.205,1.46,3.323,2.097,5.56
			c-0.51-0.194-0.765-0.285-1.28-0.458c-0.601-1.877-0.975-2.815-1.865-4.664c-0.455,0.256-0.678,0.386-1.117,0.654
			c-0.259,1.205-0.389,1.807-0.647,3.012c-0.447-0.096-0.672-0.139-1.121-0.219C434.027,319.944,434.313,318.355,434.888,315.174z"
			/>
		<path d="M441.941,321.483c0.263-0.631,0.475-1.18,0.639-1.695c0.443,0.184,0.666,0.279,1.105,0.478
			c-0.165,0.425-0.249,0.638-0.416,1.063c0.018,0.008,0.025,0.011,0.043,0.019c0.627-0.571,1.606-0.657,2.434-0.226
			c0.125,0.065,0.22,0.126,0.319,0.207c-0.185,0.347-0.278,0.522-0.464,0.869c-0.131-0.083-0.251-0.158-0.413-0.242
			c-0.847-0.439-1.72-0.205-2.184,0.426c-0.092,0.125-0.176,0.275-0.251,0.439c-0.516,1.125-0.773,1.687-1.289,2.812
			c-0.427-0.195-0.641-0.289-1.073-0.469C441.011,323.689,441.32,322.956,441.941,321.483z"/>
		<path d="M446.416,328.601c-1.451-1.002-2.092-2.659-1.197-4.262c0.947-1.696,2.994-1.883,4.745-0.666
			c1.833,1.273,2.206,3.221,1.068,4.567c-1.394,1.649-3.32,1.255-4.604,0.367C446.424,328.604,446.42,328.604,446.416,328.601z
			 M446.9,327.972c0.959,0.664,2.233,0.472,3.046-0.566c0.607-0.775,0.872-2.175-0.472-3.106c-1.331-0.923-2.543-0.277-3.115,0.667
			c-0.659,1.088-0.441,2.327,0.53,2.999C446.895,327.968,446.896,327.969,446.9,327.972z"/>
		<path d="M456.071,325.291c0.453,0.421,0.677,0.638,1.117,1.078c-2.408,2.409-3.612,3.611-6.021,6.021
			c-0.352-0.352-0.53-0.523-0.891-0.858C452.596,329.034,453.753,327.788,456.071,325.291z"/>
	</g>
</g>
<g>
	<g>
		<path d="M328.651,264.061c-1.271,1.027-1.892,1.569-3.097,2.712c0.802,0.847,1.202,1.269,2.003,2.115
			c1.272-1.206,1.931-1.774,3.281-2.844c0.217,0.275,0.325,0.413,0.542,0.688c-1.725,1.367-2.56,2.106-4.154,3.701
			c-2.286-2.286-3.43-3.431-5.716-5.718c1.791-1.791,2.726-2.624,4.659-4.169c0.218,0.274,0.329,0.411,0.547,0.685
			c-1.444,1.154-2.149,1.767-3.514,3.061c0.703,0.742,1.054,1.112,1.756,1.854c1.226-1.162,1.858-1.714,3.151-2.758
			C328.327,263.655,328.434,263.792,328.651,264.061z"/>
		<path d="M333.399,255.147c1.375,2.447,2.064,3.67,3.439,6.117c0.252,0.45,0.553,0.956,0.784,1.281
			c-0.39,0.219-0.583,0.329-0.969,0.558c-0.225-0.335-0.337-0.503-0.563-0.838c-0.01,0.006-0.015,0.008-0.025,0.014
			c-0.006,0.757-0.452,1.597-1.389,2.22c-1.388,0.921-3.14,0.767-4.205-0.629c-1.174-1.54-0.591-3.476,0.976-4.51
			c1.005-0.664,1.909-0.715,2.426-0.493c0.011-0.006,0.016-0.009,0.027-0.016c-0.708-1.187-1.062-1.781-1.771-2.968
			C332.635,255.582,332.888,255.435,333.399,255.147z M334.73,260.242c-0.074-0.124-0.174-0.26-0.286-0.36
			c-0.509-0.456-1.445-0.549-2.318,0.021c-1.204,0.786-1.337,2.079-0.598,3.114c0.691,0.966,1.83,1.327,2.97,0.583
			c0.715-0.467,1.13-1.279,0.932-2.07c-0.036-0.146-0.098-0.277-0.184-0.422C335.04,260.76,334.937,260.588,334.73,260.242z"/>
		<path d="M344.414,258.505c0.457,1.264,0.434,2.135,0.04,2.826c-0.404,0.709-1.173,1.217-1.912,1.546
			c-0.703,0.313-1.54,0.531-2.149,0.488c-0.041-0.345-0.061-0.517-0.098-0.863c0.504,0.031,1.206-0.069,1.946-0.398
			c1.111-0.494,1.735-1.334,1.198-2.708c-0.093-0.237-0.14-0.355-0.232-0.592c-0.011,0.004-0.016,0.006-0.026,0.01
			c-0.148,0.638-0.67,1.309-1.63,1.735c-1.535,0.682-3.171,0.169-3.917-1.269c-0.907-1.747,0.088-3.51,1.701-4.219
			c1.209-0.532,2.062-0.303,2.551,0.022c0.011-0.004,0.018-0.007,0.029-0.012c-0.108-0.329-0.163-0.493-0.27-0.822
			c0.455-0.176,0.684-0.26,1.142-0.425c0.094,0.399,0.241,0.844,0.481,1.51C343.725,256.603,343.955,257.237,344.414,258.505z
			 M342.271,256.452c-0.061-0.156-0.134-0.297-0.239-0.409c-0.454-0.479-1.248-0.723-2.171-0.322
			c-1.193,0.519-1.657,1.701-1.064,2.92c0.493,1.014,1.537,1.558,2.763,1.024c0.717-0.313,1.195-0.963,1.203-1.679
			c0.002-0.179-0.042-0.384-0.112-0.563C342.499,257.036,342.423,256.841,342.271,256.452z"/>
		<path d="M350.895,256.109c0.103,0.493,0.231,0.97,0.379,1.344c-0.427,0.088-0.641,0.135-1.066,0.232
			c-0.109-0.275-0.164-0.415-0.274-0.689c-0.017,0.004-0.024,0.006-0.041,0.01c-0.251,0.526-0.863,1.093-1.781,1.349
			c-1.303,0.364-2.215-0.196-2.476-0.994c-0.437-1.334,0.796-2.597,3.509-3.221c-0.011-0.047-0.018-0.07-0.029-0.117
			c-0.11-0.467-0.482-1.294-1.941-0.896c-0.678,0.185-1.334,0.537-1.748,0.954c-0.2-0.234-0.299-0.352-0.502-0.584
			c0.499-0.472,1.324-0.931,2.242-1.174c2.241-0.593,3.044,0.525,3.282,1.664C350.627,254.835,350.717,255.259,350.895,256.109z
			 M349.341,254.846c-1.377,0.298-2.858,0.945-2.536,2.025c0.199,0.667,0.8,0.813,1.395,0.651c0.866-0.236,1.311-0.833,1.392-1.357
			c0.017-0.115,0.004-0.234-0.021-0.339C349.479,255.434,349.433,255.238,349.341,254.846z"/>
		<path d="M352.452,253.173c-0.112-0.674-0.225-1.252-0.36-1.776c0.47-0.078,0.705-0.116,1.176-0.184
			c0.09,0.447,0.135,0.67,0.224,1.118c0.018-0.002,0.026-0.003,0.044-0.006c0.219-0.818,0.987-1.417,1.896-1.51
			c0.139-0.014,0.247-0.013,0.372-0.001c0.038,0.392,0.058,0.586,0.096,0.978c-0.152,0.003-0.29,0.002-0.471,0.021
			c-0.937,0.098-1.542,0.767-1.595,1.549c-0.01,0.156,0.002,0.326,0.027,0.504c0.172,1.226,0.258,1.838,0.431,3.064
			c-0.48,0.067-0.719,0.104-1.198,0.184C352.837,255.538,352.708,254.75,352.452,253.173z"/>
		<path d="M360.433,248.496c0.866-0.104,1.881-0.165,2.991-0.116c2.01,0.089,3.413,0.599,4.257,1.354
			c0.865,0.773,1.264,1.795,1.067,3.088c-0.199,1.304-0.869,2.297-1.825,2.922c-0.98,0.641-2.439,0.894-4.235,0.828
			c-0.864-0.032-1.562-0.059-2.182-0.125C360.477,253.267,360.462,251.676,360.433,248.496z M361.729,255.659
			c0.307,0.053,0.753,0.063,1.227,0.083c2.59,0.113,4.146-0.915,4.424-3.072c0.246-1.908-1.014-3.327-3.929-3.46
			c-0.712-0.032-1.253,0.003-1.618,0.058C361.791,251.824,361.771,253.103,361.729,255.659z"/>
		<path d="M374.54,256.993c-0.14,0.484-0.248,0.963-0.292,1.363c-0.42-0.122-0.631-0.18-1.054-0.292
			c0.033-0.294,0.048-0.442,0.08-0.736c-0.017-0.004-0.024-0.006-0.041-0.01c-0.469,0.349-1.273,0.562-2.202,0.361
			c-1.318-0.285-1.856-1.203-1.713-2.03c0.239-1.383,1.904-1.929,4.598-1.215c0.012-0.046,0.017-0.069,0.029-0.116
			c0.121-0.464,0.176-1.371-1.297-1.698c-0.685-0.152-1.424-0.146-1.982,0.03c-0.066-0.3-0.101-0.452-0.171-0.752
			c0.658-0.185,1.599-0.206,2.523,0.007c2.255,0.519,2.449,1.884,2.126,3.002C374.903,255.741,374.78,256.158,374.54,256.993z
			 M373.758,255.147c-1.359-0.379-2.966-0.496-3.187,0.609c-0.136,0.683,0.325,1.093,0.926,1.227
			c0.874,0.195,1.547-0.125,1.865-0.551c0.069-0.094,0.112-0.207,0.139-0.312C373.604,255.731,373.656,255.537,373.758,255.147z"/>
		<path d="M378.173,253.506c0.142,1.421,0.195,2.13,0.265,3.542c0.032,0.588,0.037,1.104-0.002,1.602
			c0.016,0.006,0.023,0.009,0.039,0.015c0.319-0.391,0.681-0.765,1.1-1.179c0.996-1.003,1.509-1.494,2.565-2.454
			c0.53,0.229,0.793,0.346,1.318,0.59c-2.062,1.604-3.039,2.451-4.883,4.217c-0.436-0.173-0.654-0.256-1.092-0.418
			c-0.155-2.533-0.295-3.811-0.701-6.367C377.34,253.227,377.618,253.317,378.173,253.506z"/>
		<path d="M385.718,255.534c-0.474-0.242-0.654-0.675-0.491-1.009c0.164-0.334,0.636-0.439,1.135-0.184s0.68,0.692,0.505,1.021
			c-0.174,0.328-0.633,0.436-1.135,0.179C385.727,255.539,385.724,255.537,385.718,255.534z M382.068,261.394
			c1.029-2.082,1.544-3.123,2.573-5.205c0.498,0.246,0.744,0.372,1.236,0.632c-1.083,2.055-1.625,3.083-2.708,5.138
			C382.73,261.727,382.511,261.613,382.068,261.394z"/>
		<path d="M395.109,259.532c-1.707,2.228-2.561,3.342-4.267,5.57c-0.313,0.409-0.66,0.885-0.867,1.225
			c-0.361-0.278-0.543-0.413-0.91-0.682c0.219-0.339,0.328-0.51,0.547-0.85c-0.009-0.007-0.014-0.011-0.023-0.018
			c-0.702,0.29-1.656,0.205-2.596-0.413c-1.392-0.914-1.915-2.574-1.051-4.103c0.953-1.686,2.932-1.929,4.498-0.895
			c1.005,0.664,1.417,1.483,1.419,2.049c0.01,0.007,0.015,0.01,0.025,0.018c0.811-1.119,1.217-1.678,2.027-2.797
			C394.395,258.988,394.634,259.167,395.109,259.532z M390.935,262.746c0.084-0.117,0.17-0.264,0.218-0.406
			c0.215-0.649-0.076-1.553-0.944-2.132c-1.197-0.799-2.426-0.406-3.084,0.682c-0.615,1.016-0.508,2.199,0.626,2.956
			c0.711,0.475,1.626,0.542,2.277,0.05c0.121-0.09,0.217-0.198,0.316-0.334C390.58,263.234,390.698,263.072,390.935,262.746z"/>
		<path d="M392.132,266.688c0.186,0.405,0.563,1.011,1.05,1.447c0.697,0.625,1.273,0.671,1.611,0.314
			c0.347-0.366,0.266-0.842-0.279-1.712c-0.747-1.193-0.897-2.027-0.453-2.563c0.597-0.72,1.901-0.656,3.153,0.497
			c0.595,0.548,1.003,1.158,1.165,1.605c-0.312,0.117-0.468,0.177-0.777,0.298c-0.129-0.31-0.399-0.857-0.938-1.353
			c-0.624-0.573-1.204-0.596-1.488-0.271c-0.324,0.37-0.127,0.825,0.406,1.707c0.702,1.159,0.827,2.01,0.208,2.629
			c-0.729,0.729-1.928,0.521-3.158-0.581c-0.577-0.517-1.011-1.102-1.242-1.604C391.686,266.936,391.833,266.852,392.132,266.688z"
			/>
	</g>
</g>
<g>
	<g>
		<path d="M469.18,264.326c0.453-0.605,1.192-1.41,1.936-2.07c1.172-1.04,2.117-1.492,2.935-1.555
			c0.636-0.049,1.225,0.202,1.603,0.713c0.627,0.849,0.345,1.933-0.299,2.827c0.009,0.011,0.014,0.016,0.022,0.027
			c0.736-0.32,1.464-0.144,2.16,0.378c0.932,0.7,1.568,1.207,1.896,1.355c-0.397,0.29-0.595,0.438-0.985,0.742
			c-0.259-0.087-0.848-0.506-1.681-1.13c-0.923-0.689-1.631-0.669-2.551,0.099c-0.372,0.33-0.557,0.498-0.922,0.841
			c0.959,1.021,1.437,1.531,2.396,2.553c-0.354,0.333-0.531,0.504-0.878,0.852C472.558,267.705,471.433,266.578,469.18,264.326z
			 M472.75,265.977c0.403-0.379,0.607-0.565,1.02-0.929c1.077-0.95,1.414-1.978,0.843-2.703c-0.646-0.82-1.745-0.551-2.886,0.458
			c-0.521,0.46-0.838,0.825-0.986,1.031C471.545,264.69,471.945,265.12,472.75,265.977z"/>
		<path d="M484.519,261.103c0.263,0.539,0.506,1.008,0.741,1.401c-0.375,0.182-0.559,0.275-0.93,0.468
			c-0.198-0.324-0.298-0.485-0.497-0.809c-0.01,0.005-0.019,0.007-0.028,0.012c-0.051,0.555-0.375,1.411-1.368,2.003
			c-0.877,0.523-2.189,0.783-3.327-0.895c-0.762-1.124-1.142-1.687-1.903-2.811c0.455-0.31,0.685-0.46,1.147-0.754
			c0.686,1.082,1.027,1.623,1.713,2.706c0.591,0.933,1.328,1.344,2.266,0.798c0.699-0.408,0.954-1.104,0.932-1.629
			c-0.007-0.159-0.058-0.351-0.152-0.531c-0.661-1.257-0.993-1.886-1.654-3.143c0.48-0.252,0.725-0.375,1.211-0.612
			C483.408,258.826,483.778,259.584,484.519,261.103z"/>
		<path d="M491.621,258.439c0.157,0.579,0.309,1.084,0.466,1.514c-0.396,0.106-0.594,0.163-0.987,0.28
			c-0.134-0.355-0.198-0.532-0.333-0.887c-0.011,0.003-0.018,0.004-0.028,0.007c-0.149,0.533-0.621,1.309-1.688,1.694
			c-0.941,0.34-2.254,0.333-3.052-1.531c-0.534-1.249-0.802-1.873-1.336-3.121c0.495-0.211,0.742-0.313,1.242-0.509
			c0.468,1.192,0.702,1.789,1.17,2.981c0.403,1.028,1.042,1.576,2.047,1.225c0.75-0.262,1.125-0.896,1.198-1.414
			c0.022-0.157,0.007-0.354-0.053-0.549c-0.412-1.359-0.619-2.04-1.032-3.398c0.511-0.155,0.767-0.227,1.281-0.366
			C490.959,255.995,491.18,256.81,491.621,258.439z"/>
		<path d="M498.688,250.236c0.206,2.799,0.312,4.198,0.52,6.997c0.038,0.514,0.094,1.099,0.161,1.491
			c-0.412,0.03-0.616,0.047-1.027,0.088c-0.061-0.399-0.094-0.598-0.155-0.997c-0.011,0.001-0.015,0.002-0.025,0.003
			c-0.295,0.681-0.988,1.247-2.007,1.407c-1.508,0.237-2.931-0.648-3.332-2.358c-0.442-1.885,0.772-3.388,2.519-3.657
			c1.12-0.173,1.922,0.167,2.278,0.588c0.012-0.001,0.018-0.001,0.029-0.002c-0.143-1.375-0.214-2.062-0.356-3.437
			C497.85,250.302,498.128,250.277,498.688,250.236z M497.813,255.406c-0.015-0.143-0.045-0.311-0.102-0.449
			c-0.258-0.629-1.027-1.111-1.995-0.968c-1.334,0.198-1.931,1.308-1.682,2.555c0.232,1.165,1.061,1.977,2.301,1.792
			c0.778-0.116,1.439-0.67,1.576-1.469c0.026-0.147,0.027-0.292,0.01-0.459C497.879,256.007,497.854,255.807,497.813,255.406z"/>
		<path d="M510.777,259.217c-0.544,0.063-1.597,0.108-2.772-0.071c-1.317-0.2-2.372-0.608-3.2-1.42
			c-0.731-0.717-1.195-1.813-1.151-3.071c0.083-2.409,2.354-4.18,5.896-3.619c1.222,0.193,2.147,0.596,2.559,0.858
			c-0.209,0.303-0.312,0.455-0.516,0.76c-0.503-0.313-1.166-0.593-2.212-0.758c-2.521-0.398-4.267,0.753-4.4,2.776
			c-0.135,2.047,1.148,3.312,3.234,3.633c0.753,0.116,1.283,0.121,1.57,0.055c0.185-0.947,0.276-1.419,0.461-2.366
			c-0.762-0.148-1.145-0.214-1.911-0.327c0.049-0.332,0.073-0.498,0.122-0.83c1.276,0.188,1.914,0.305,3.177,0.589
			C511.291,256.942,511.119,257.701,510.777,259.217z"/>
		<path d="M518.046,260.288c-0.236,0.551-0.432,1.041-0.575,1.476c-0.381-0.164-0.572-0.243-0.957-0.396
			c0.115-0.362,0.173-0.542,0.287-0.905c-0.01-0.004-0.014-0.006-0.023-0.01c-0.45,0.325-1.306,0.64-2.379,0.282
			c-0.948-0.316-1.963-1.132-1.432-3.088c0.356-1.31,0.533-1.966,0.89-3.276c0.515,0.139,0.771,0.214,1.281,0.369
			c-0.373,1.226-0.558,1.839-0.931,3.064c-0.321,1.056-0.165,1.88,0.841,2.226c0.751,0.259,1.44-0.006,1.82-0.367
			c0.115-0.109,0.223-0.272,0.298-0.462c0.521-1.322,0.781-1.983,1.302-3.305c0.499,0.196,0.749,0.297,1.243,0.509
			C519.045,257.958,518.711,258.735,518.046,260.288z"/>
		<path d="M522.939,254.906c0.515,0.252,0.771,0.382,1.279,0.65c-1.592,3.013-2.387,4.519-3.977,7.532
			c-0.417-0.22-0.626-0.327-1.048-0.534C520.691,259.495,521.44,257.966,522.939,254.906z"/>
		<path d="M526.309,256.729c0.498,0.296,0.744,0.449,1.234,0.762c-1.83,2.874-2.747,4.31-4.576,7.183
			c-0.402-0.256-0.604-0.38-1.012-0.624C523.695,261.122,524.566,259.658,526.309,256.729z"/>
		<path d="M529.145,260.582c-0.429-0.315-0.538-0.771-0.324-1.075c0.215-0.304,0.7-0.333,1.154,0.002s0.561,0.798,0.334,1.093
			c-0.227,0.295-0.698,0.324-1.152-0.011C529.151,260.587,529.149,260.586,529.145,260.582z M524.61,265.786
			c1.346-1.893,2.021-2.838,3.367-4.73c0.45,0.321,0.673,0.485,1.115,0.822c-1.405,1.849-2.108,2.774-3.513,4.624
			C525.195,266.208,525.002,266.064,524.61,265.786z"/>
		<path d="M533.109,263.421c-0.375,0.411-0.563,0.615-0.938,1.026c0.598,0.546,0.893,0.827,1.471,1.405
			c-0.228,0.227-0.342,0.341-0.569,0.568c-0.567-0.567-0.856-0.844-1.443-1.38c-0.844,0.925-1.267,1.388-2.11,2.313
			c-0.485,0.532-0.579,0.99-0.073,1.475c0.248,0.237,0.409,0.363,0.576,0.461c-0.21,0.244-0.316,0.364-0.527,0.607
			c-0.221-0.118-0.541-0.332-0.887-0.658c-0.416-0.393-0.648-0.824-0.685-1.223c-0.041-0.462,0.189-0.948,0.635-1.467
			c0.824-0.961,1.235-1.444,2.06-2.405c-0.356-0.306-0.536-0.458-0.898-0.752c0.202-0.25,0.305-0.373,0.507-0.623
			c0.369,0.3,0.551,0.454,0.914,0.766c0.278-0.324,0.418-0.486,0.696-0.811C532.347,262.992,532.602,263.132,533.109,263.421z"/>
	</g>
</g>
<g>
	<g>
		<path d="M262.982,182.727c0.454-0.399,0.683-0.595,1.146-0.98c1.382,1.665,2.073,2.499,3.456,4.164
			c1.372,1.651,0.801,2.966-0.443,4.141c-0.354,0.334-0.823,0.679-1.121,0.824c-0.19-0.292-0.287-0.439-0.475-0.732
			c0.253-0.132,0.583-0.355,0.911-0.666c0.85-0.806,1.083-1.558,0.039-2.748C265.089,185.129,264.387,184.328,262.982,182.727z"/>
		<path d="M273.315,185.124c-1.545,1.034-3.41,1.042-4.534-0.408c-1.19-1.536-0.514-3.523,1.271-4.712
			c1.867-1.243,3.78-0.909,4.65,0.625c1.066,1.877-0.009,3.572-1.376,4.486C273.321,185.118,273.32,185.121,273.315,185.124z
			 M272.913,184.439c1.015-0.678,1.306-1.954,0.624-3.083c-0.509-0.842-1.712-1.584-3.086-0.667
			c-1.362,0.909-1.253,2.283-0.602,3.173c0.751,1.026,2.024,1.272,3.051,0.585C272.904,184.444,272.908,184.443,272.913,184.439z"/>
		<path d="M273.594,174.907c0.52-0.273,0.783-0.405,1.308-0.663c0.639,1.301,0.958,1.951,1.597,3.251
			c0.011-0.005,0.016-0.009,0.027-0.014c0.063-0.365,0.273-0.765,0.567-1.096c0.291-0.328,0.693-0.648,1.171-0.856
			c0.941-0.409,2.637-0.551,3.344,1.323c0.488,1.293,0.732,1.938,1.22,3.231c-0.46,0.173-0.69,0.264-1.147,0.449
			c-0.503-1.235-0.755-1.854-1.258-3.089c-0.357-0.878-1.072-1.444-2.251-0.918c-0.809,0.361-1.199,1.115-1.2,1.727
			c0,0.158,0.049,0.31,0.139,0.493c0.618,1.257,0.928,1.887,1.545,3.144c-0.445,0.219-0.668,0.332-1.109,0.563
			C275.967,179.435,275.176,177.925,273.594,174.907z"/>
		<path d="M288.978,176.81c0.109,0.491,0.244,0.963,0.397,1.335c-0.428,0.094-0.642,0.144-1.067,0.247
			c-0.112-0.274-0.168-0.411-0.282-0.684c-0.017,0.004-0.024,0.006-0.041,0.01c-0.246,0.53-0.854,1.104-1.771,1.373
			c-1.304,0.382-2.227-0.163-2.499-0.957c-0.454-1.328,0.768-2.611,3.485-3.273c-0.012-0.047-0.017-0.07-0.028-0.117
			c-0.116-0.465-0.5-1.288-1.961-0.869c-0.679,0.195-1.333,0.556-1.743,0.979c-0.204-0.231-0.306-0.346-0.513-0.576
			c0.496-0.479,1.319-0.952,2.238-1.208c2.244-0.625,3.063,0.483,3.315,1.619C288.695,175.536,288.79,175.962,288.978,176.81z
			 M287.403,175.563c-1.379,0.317-2.858,0.987-2.521,2.063c0.208,0.664,0.813,0.801,1.408,0.63c0.867-0.248,1.307-0.851,1.382-1.376
			c0.016-0.115,0-0.234-0.025-0.339C287.55,176.15,287.5,175.955,287.403,175.563z"/>
		<path d="M290.451,173.616c-0.108-0.602-0.206-1.071-0.337-1.535c0.477-0.085,0.716-0.126,1.194-0.201
			c0.089,0.37,0.133,0.555,0.221,0.924c0.012-0.002,0.02-0.002,0.032-0.004c0.279-0.589,1.065-1.255,2.302-1.387
			c1.035-0.11,2.673,0.263,2.787,2.25c0.079,1.384,0.12,2.075,0.199,3.459c-0.485,0.027-0.728,0.044-1.212,0.084
			c-0.11-1.334-0.167-2-0.277-3.334c-0.077-0.932-0.584-1.698-1.845-1.553c-0.866,0.1-1.47,0.703-1.628,1.305
			c-0.036,0.137-0.04,0.333-0.015,0.5c0.211,1.385,0.318,2.077,0.529,3.462c-0.481,0.073-0.723,0.113-1.202,0.198
			C290.899,176.117,290.75,175.283,290.451,173.616z"/>
		<path d="M308.28,177.598c-0.459,0.11-1.373,0.141-2.493-0.008c-2.595-0.344-4.502-1.819-4.407-4.48
			c0.091-2.541,2.473-4.217,5.83-3.752c1.333,0.185,2.158,0.561,2.497,0.771c-0.202,0.309-0.303,0.464-0.501,0.775
			c-0.466-0.279-1.185-0.546-2.07-0.669c-2.498-0.348-4.247,0.788-4.38,2.906c-0.125,1.987,1.129,3.293,3.396,3.605
			c0.751,0.104,1.52,0.097,2.044-0.016C308.231,177.077,308.249,177.25,308.28,177.598z"/>
		<path d="M310.545,174.237c0.146-0.668,0.257-1.245,0.327-1.782c0.468,0.102,0.702,0.155,1.168,0.268
			c-0.083,0.449-0.124,0.672-0.208,1.121c0.018,0.004,0.027,0.007,0.045,0.012c0.51-0.678,1.452-0.95,2.34-0.697
			c0.135,0.039,0.238,0.08,0.351,0.138c-0.111,0.377-0.167,0.567-0.278,0.944c-0.144-0.055-0.273-0.105-0.45-0.155
			c-0.916-0.259-1.731,0.135-2.072,0.842c-0.068,0.141-0.12,0.304-0.163,0.479c-0.296,1.202-0.443,1.803-0.739,3.004
			c-0.475-0.116-0.712-0.17-1.189-0.274C310.024,176.577,310.197,175.797,310.545,174.237z"/>
		<path d="M319.976,179.917c-0.25,0.545-0.458,1.03-0.61,1.461c-0.398-0.184-0.599-0.273-1.001-0.447
			c0.125-0.359,0.187-0.539,0.311-0.898c-0.01-0.004-0.014-0.006-0.025-0.01c-0.474,0.306-1.376,0.577-2.499,0.157
			c-0.991-0.372-2.038-1.252-1.419-3.182c0.414-1.293,0.622-1.939,1.036-3.232c0.524,0.167,0.785,0.254,1.306,0.436
			c-0.422,1.209-0.634,1.815-1.056,3.024c-0.364,1.042-0.221,1.878,0.826,2.281c0.782,0.301,1.507,0.069,1.909-0.275
			c0.122-0.104,0.24-0.264,0.32-0.452c0.559-1.306,0.838-1.958,1.397-3.263c0.51,0.218,0.764,0.331,1.269,0.563
			C321.034,177.614,320.68,178.381,319.976,179.917z"/>
		<path d="M324.271,177.323c-0.048,1.525-0.094,2.283-0.225,3.786c-0.033,0.422-0.107,0.906-0.181,1.266
			c0.01,0.006,0.015,0.008,0.025,0.014c0.288-0.235,0.639-0.543,1.007-0.813c1.188-0.88,1.798-1.307,3.046-2.129
			c0.504,0.319,0.755,0.482,1.252,0.817c-1.628,0.899-2.42,1.376-3.951,2.377c-1.835,1.208-2.856,1.817-3.866,1.969
			c-0.727,0.109-1.314,0.003-1.597-0.086c0.056-0.37,0.083-0.555,0.135-0.926c0.3,0.069,0.736,0.086,1.171,0.023
			c0.386-0.056,0.956-0.211,1.469-0.54c0.102-0.065,0.174-0.108,0.209-0.171c0.029-0.052,0.046-0.141,0.042-0.28
			c0.153-2.37,0.174-3.571,0.104-5.993C323.458,176.903,323.731,177.04,324.271,177.323z"/>
		<path d="M327,185.806c1.16-1.63,1.738-2.446,2.898-4.076c-0.348-0.248-0.522-0.37-0.874-0.609
			c0.181-0.266,0.273-0.397,0.454-0.663c0.357,0.244,0.534,0.366,0.887,0.618c0.064-0.09,0.095-0.135,0.159-0.225
			c0.473-0.665,1.123-1.117,1.954-1.085c0.673,0.026,1.374,0.356,1.912,0.785c0.43,0.343,0.723,0.694,0.895,0.947
			c-0.267,0.202-0.4,0.304-0.666,0.507c-0.136-0.207-0.322-0.439-0.667-0.714c-0.979-0.783-1.73-0.341-2.263,0.369
			c-0.075,0.1-0.112,0.151-0.187,0.25c0.607,0.458,0.908,0.692,1.502,1.175c-0.202,0.25-0.305,0.375-0.507,0.624
			c-0.58-0.471-0.873-0.7-1.466-1.147c-1.203,1.599-1.804,2.398-3.007,3.997C327.617,186.251,327.413,186.1,327,185.806z"/>
		<path d="M330.338,188.42c1.301-1.521,1.952-2.28,3.252-3.8c-0.33-0.282-0.495-0.422-0.829-0.696
			c0.204-0.249,0.306-0.373,0.51-0.622c0.339,0.279,0.507,0.42,0.841,0.707c0.072-0.084,0.107-0.125,0.179-0.209
			c0.53-0.62,1.222-1.01,2.056-0.896c0.675,0.092,1.352,0.495,1.858,0.978c0.405,0.387,0.672,0.769,0.824,1.039
			c-0.286,0.176-0.428,0.265-0.712,0.443c-0.12-0.221-0.288-0.473-0.611-0.783c-0.921-0.883-1.715-0.514-2.31,0.145
			c-0.083,0.093-0.125,0.139-0.208,0.231c0.573,0.519,0.857,0.785,1.416,1.329c-0.224,0.23-0.337,0.346-0.561,0.576
			c-0.545-0.531-0.822-0.79-1.381-1.297c-1.342,1.484-2.011,2.226-3.353,3.71C330.925,188.927,330.729,188.755,330.338,188.42z"/>
	</g>
</g>
<g>
	<g>
		<path d="M506.113,185.979c1.747-1.747,2.656-2.567,4.528-4.101c0.222,0.271,0.332,0.407,0.554,0.678
			c-1.397,1.145-2.081,1.747-3.409,3.013c0.741,0.778,1.111,1.168,1.853,1.946c1.172-1.117,1.775-1.649,3.004-2.668
			c0.22,0.266,0.329,0.398,0.549,0.665c-1.21,1.003-1.804,1.529-2.958,2.629c1.009,1.06,1.513,1.589,2.521,2.649
			c-0.374,0.356-0.558,0.537-0.925,0.904C509.544,189.408,508.399,188.265,506.113,185.979z"/>
		<path d="M514.407,184.105c-0.418-0.541-0.788-0.997-1.156-1.394c0.389-0.302,0.582-0.449,0.976-0.742
			c0.292,0.351,0.437,0.525,0.728,0.876c0.015-0.011,0.023-0.016,0.038-0.027c-0.188-0.831,0.218-1.739,0.989-2.269
			c0.117-0.081,0.219-0.133,0.337-0.184c0.22,0.326,0.328,0.488,0.548,0.814c-0.136,0.078-0.256,0.147-0.409,0.253
			c-0.795,0.548-1.027,1.436-0.706,2.153c0.063,0.143,0.153,0.288,0.26,0.433c0.734,0.997,1.102,1.495,1.836,2.491
			c-0.405,0.3-0.604,0.452-1.005,0.763C515.868,186.006,515.38,185.373,514.407,184.105z"/>
		<path d="M524.091,180.971c0.233,0.446,0.484,0.869,0.729,1.188c-0.393,0.204-0.588,0.309-0.978,0.522
			c-0.18-0.235-0.269-0.353-0.449-0.587c-0.015,0.008-0.022,0.012-0.037,0.02c-0.104,0.578-0.554,1.293-1.386,1.796
			c-1.182,0.714-2.222,0.425-2.684-0.276c-0.771-1.172,0.107-2.73,2.574-4.08c-0.023-0.042-0.035-0.063-0.059-0.105
			c-0.231-0.42-0.814-1.114-2.126-0.331c-0.608,0.363-1.15,0.881-1.444,1.396c-0.256-0.172-0.384-0.258-0.643-0.428
			c0.362-0.592,1.042-1.26,1.867-1.744c2.016-1.184,3.092-0.328,3.63,0.704C523.489,179.816,523.688,180.201,524.091,180.971z
			 M522.241,180.181c-1.259,0.667-2.536,1.7-1.938,2.656c0.369,0.59,0.997,0.565,1.537,0.243c0.785-0.468,1.058-1.166,0.997-1.695
			c-0.014-0.116-0.058-0.229-0.109-0.323C522.533,180.709,522.436,180.534,522.241,180.181z"/>
		<path d="M524.686,177.499c-0.263-0.552-0.484-0.98-0.732-1.393c0.437-0.208,0.656-0.31,1.096-0.508
			c0.185,0.333,0.277,0.5,0.461,0.833c0.011-0.005,0.018-0.008,0.028-0.013c0.111-0.642,0.685-1.492,1.832-1.95
			c0.96-0.383,2.629-0.47,3.284,1.41c0.457,1.31,0.686,1.966,1.142,3.276c-0.46,0.16-0.69,0.243-1.147,0.414
			c-0.47-1.254-0.704-1.881-1.174-3.135c-0.328-0.876-1.021-1.477-2.191-1c-0.803,0.328-1.224,1.071-1.216,1.694
			c0.002,0.142,0.052,0.332,0.12,0.485c0.572,1.279,0.856,1.918,1.429,3.197c-0.447,0.2-0.669,0.304-1.113,0.515
			C525.776,179.793,525.413,179.028,524.686,177.499z"/>
		<path d="M533.988,175.172c0.012-0.003,0.016-0.005,0.026-0.009c0.113-0.244,0.271-0.561,0.421-0.799
			c0.606-0.993,0.926-1.486,1.597-2.462c0.624-0.143,0.938-0.21,1.564-0.336c-0.929,1.16-1.368,1.749-2.196,2.942
			c1.545,1.021,2.284,1.56,3.693,2.68c-0.577,0.112-0.864,0.171-1.438,0.299c-1.135-0.893-1.722-1.325-2.942-2.155
			c-0.188,0.304-0.283,0.458-0.466,0.763c0.237,0.84,0.357,1.261,0.595,2.102c-0.467,0.131-0.7,0.199-1.165,0.341
			c-0.999-3.256-1.498-4.885-2.498-8.142c0.539-0.165,0.81-0.244,1.352-0.396C533.114,172.069,533.405,173.104,533.988,175.172z"/>
		<path d="M545.238,168.384c0.685-0.152,1.69-0.274,2.621-0.294c1.468-0.032,2.434,0.218,3.075,0.685
			c0.499,0.363,0.79,0.928,0.763,1.563c-0.045,1.054-0.924,1.722-1.955,2c0,0.014,0,0.022,0,0.036
			c0.746,0.224,1.188,0.818,1.395,1.662c0.277,1.13,0.457,1.927,0.62,2.247c-0.492-0.024-0.738-0.033-1.23-0.045
			c-0.145-0.232-0.335-0.934-0.576-1.944c-0.268-1.119-0.808-1.552-1.96-1.563c-0.479,0.01-0.719,0.019-1.196,0.039
			c0.06,1.399,0.09,2.1,0.149,3.499c-0.476,0.02-0.712,0.034-1.188,0.064C545.549,173.154,545.445,171.563,545.238,168.384z
			 M546.761,171.979c0.526-0.022,0.788-0.03,1.314-0.041c1.375-0.027,2.261-0.611,2.279-1.534c0.021-1.043-0.951-1.527-2.384-1.499
			c-0.654,0.013-1.104,0.079-1.334,0.137C546.687,170.216,546.711,170.804,546.761,171.979z"/>
		<path d="M554.379,169.574c-0.509-0.044-0.826-0.379-0.799-0.75c0.027-0.371,0.411-0.645,0.947-0.598s0.853,0.383,0.814,0.753
			c-0.038,0.37-0.41,0.643-0.949,0.596C554.387,169.575,554.385,169.575,554.379,169.574z M553.207,176.374
			c0.176-2.315,0.264-3.473,0.44-5.788c0.533,0.041,0.801,0.064,1.333,0.117c-0.229,2.311-0.344,3.465-0.572,5.776
			C553.929,176.431,553.688,176.411,553.207,176.374z"/>
		<path d="M554.597,178.209c0.544,0.021,1.011-0.053,1.321-0.29c0.36-0.275,0.562-0.722,0.755-2.1
			c0.271-1.934,0.407-2.901,0.68-4.835c0.53,0.074,0.793,0.115,1.321,0.201c-0.343,2.088-0.514,3.132-0.856,5.22
			c-0.183,1.113-0.503,1.804-1.142,2.236c-0.573,0.389-1.428,0.471-2.037,0.405C554.623,178.712,554.614,178.544,554.597,178.209z
			 M558.145,170.021c-0.506-0.076-0.801-0.429-0.75-0.797c0.051-0.369,0.453-0.618,0.985-0.538s0.829,0.436,0.768,0.803
			c-0.062,0.367-0.435,0.619-0.986,0.535C558.155,170.022,558.15,170.021,558.145,170.021z"/>
		<path d="M561.557,174.457c0.012,0.002,0.019,0.003,0.03,0.006c0.215-0.161,0.504-0.365,0.749-0.504
			c1.006-0.584,1.521-0.866,2.578-1.404c0.619,0.171,0.928,0.262,1.543,0.451c-1.376,0.576-2.047,0.885-3.345,1.54
			c0.871,1.633,1.269,2.458,1.979,4.115c-0.563-0.177-0.848-0.262-1.415-0.423c-0.574-1.325-0.883-1.985-1.559-3.295
			c-0.311,0.178-0.465,0.268-0.77,0.45c-0.192,0.852-0.292,1.277-0.484,2.128c-0.472-0.106-0.708-0.156-1.182-0.252
			c0.676-3.338,1.015-5.008,1.692-8.346c0.55,0.111,0.824,0.169,1.372,0.293C562.271,171.312,562.031,172.361,561.557,174.457z"/>
		<path d="M571.112,179.446c-0.204,0.46-0.376,0.921-0.473,1.312c-0.402-0.179-0.604-0.265-1.01-0.435
			c0.072-0.287,0.109-0.43,0.181-0.718c-0.016-0.006-0.024-0.01-0.04-0.016c-0.513,0.28-1.343,0.379-2.236,0.048
			c-1.27-0.471-1.673-1.459-1.411-2.257c0.437-1.334,2.153-1.63,4.717-0.555c0.019-0.044,0.028-0.067,0.047-0.112
			c0.184-0.443,0.361-1.331-1.043-1.859c-0.652-0.245-1.38-0.342-1.954-0.247c-0.021-0.307-0.036-0.461-0.061-0.768
			c0.674-0.089,1.604,0.021,2.482,0.358c2.145,0.825,2.152,2.199,1.682,3.263C571.642,178.254,571.464,178.652,571.112,179.446z
			 M570.589,177.511c-1.292-0.562-2.862-0.904-3.238,0.158c-0.232,0.656,0.165,1.128,0.742,1.346
			c0.84,0.317,1.554,0.094,1.927-0.284c0.081-0.083,0.142-0.189,0.183-0.289C570.356,178.07,570.435,177.883,570.589,177.511z"/>
		<path d="M577.262,182.651c-0.261,0.431-0.492,0.867-0.638,1.243c-0.382-0.232-0.57-0.347-0.956-0.571
			c0.107-0.276,0.16-0.414,0.267-0.69c-0.015-0.009-0.022-0.013-0.037-0.022c-0.549,0.21-1.393,0.198-2.247-0.25
			c-1.214-0.636-1.492-1.67-1.132-2.429c0.602-1.268,2.354-1.34,4.792,0.074c0.023-0.042,0.037-0.063,0.061-0.105
			c0.238-0.416,0.526-1.276-0.815-1.988c-0.623-0.331-1.343-0.524-1.929-0.506c0.016-0.308,0.022-0.461,0.035-0.77
			c0.686,0,1.603,0.233,2.44,0.686c2.047,1.106,1.886,2.475,1.283,3.471C577.936,181.536,577.711,181.908,577.262,182.651z
			 M576.972,180.654c-1.226-0.732-2.755-1.28-3.263-0.273c-0.313,0.622,0.027,1.142,0.578,1.435
			c0.803,0.427,1.548,0.301,1.969-0.025c0.092-0.072,0.163-0.167,0.217-0.261C576.674,181.18,576.771,181.004,576.972,180.654z"/>
		<path d="M580.441,181.583c0.376-0.571,0.687-1.071,0.943-1.548c0.405,0.267,0.605,0.402,1.007,0.679
			c-0.237,0.39-0.354,0.584-0.593,0.974c0.016,0.011,0.024,0.017,0.04,0.027c0.723-0.448,1.708-0.357,2.462,0.206
			c0.115,0.086,0.199,0.164,0.286,0.26c-0.237,0.314-0.356,0.469-0.594,0.783c-0.118-0.104-0.224-0.199-0.374-0.311
			c-0.779-0.58-1.691-0.51-2.265,0.026c-0.114,0.107-0.221,0.241-0.323,0.389c-0.705,1.018-1.057,1.526-1.762,2.544
			c-0.412-0.286-0.62-0.426-1.037-0.701C579.115,183.58,579.558,182.914,580.441,181.583z"/>
		<path d="M592.514,185.625c-1.982,1.987-2.974,2.98-4.956,4.967c-0.364,0.365-0.767,0.792-1.016,1.103
			c-0.33-0.33-0.495-0.493-0.83-0.813c0.262-0.307,0.392-0.461,0.652-0.77c-0.009-0.008-0.014-0.012-0.022-0.021
			c-0.739,0.189-1.69-0.033-2.554-0.787c-1.278-1.115-1.576-2.847-0.506-4.239c1.18-1.534,3.18-1.49,4.604-0.242
			c0.913,0.8,1.218,1.671,1.148,2.235c0.01,0.009,0.014,0.013,0.023,0.022c0.952-1.001,1.429-1.503,2.381-2.505
			C591.873,184.989,592.087,185.199,592.514,185.625z M587.945,188.254c0.1-0.104,0.202-0.238,0.268-0.373
			c0.297-0.617,0.119-1.557-0.67-2.255c-1.088-0.963-2.361-0.75-3.164,0.235c-0.75,0.921-0.803,2.116,0.237,3.035
			c0.652,0.577,1.56,0.775,2.272,0.377c0.133-0.073,0.243-0.167,0.358-0.288C587.524,188.693,587.668,188.546,587.945,188.254z"/>
	</g>
</g>
<g>
	<g>
		<path d="M525,114.166c0.366,1.042,0.556,1.559,0.957,2.58c-0.384,0.365-0.575,0.55-0.952,0.927
			c-1.328-3.244-1.904-4.927-2.867-8.383c0.534-0.468,0.807-0.699,1.352-1.148c3.248,1.513,4.805,2.364,7.76,4.221
			c-0.433,0.312-0.648,0.47-1.074,0.794c-0.944-0.559-1.423-0.83-2.396-1.355C526.643,112.702,526.086,113.175,525,114.166z
			 M527.053,111.333c-0.904-0.468-1.359-0.695-2.287-1.133c-0.511-0.261-0.946-0.521-1.375-0.771
			c-0.016,0.013-0.023,0.019-0.039,0.032c0.189,0.453,0.379,0.953,0.541,1.463c0.289,0.988,0.443,1.478,0.764,2.449
			C525.597,112.524,526.076,112.116,527.053,111.333z"/>
		<path d="M530.112,108.282c-0.384-0.566-0.725-1.045-1.067-1.464c0.405-0.276,0.608-0.413,1.019-0.679
			c0.27,0.369,0.402,0.554,0.671,0.923c0.016-0.01,0.023-0.015,0.039-0.025c-0.136-0.84,0.326-1.719,1.129-2.195
			c0.122-0.073,0.223-0.118,0.344-0.161c0.198,0.34,0.299,0.509,0.497,0.849c-0.14,0.068-0.264,0.129-0.424,0.225
			c-0.827,0.494-1.113,1.363-0.837,2.099c0.055,0.146,0.134,0.296,0.231,0.447c0.669,1.042,1.004,1.563,1.673,2.604
			c-0.421,0.271-0.63,0.409-1.045,0.691C531.45,110.271,531.004,109.608,530.112,108.282z"/>
		<path d="M535.706,111.47c0.463-0.318,0.803-0.664,0.917-1.044c0.132-0.44,0.028-0.921-0.64-2.142
			c-0.938-1.713-1.406-2.569-2.344-4.282c0.485-0.266,0.729-0.396,1.22-0.649c0.97,1.88,1.456,2.823,2.426,4.703
			c0.517,1.002,0.667,1.752,0.4,2.487c-0.239,0.66-0.897,1.248-1.44,1.569C536.03,111.854,535.923,111.727,535.706,111.47z
			 M533.718,102.747c-0.466,0.248-0.923,0.146-1.103-0.179c-0.18-0.326,0.004-0.772,0.495-1.033s0.948-0.155,1.118,0.176
			c0.169,0.331,0.012,0.759-0.497,1.029C533.726,102.742,533.724,102.744,533.718,102.747z"/>
		<path d="M538.854,104.85c0.612,1.29,1.82,1.387,2.975,0.931c0.826-0.326,1.296-0.634,1.671-0.932
			c0.185,0.25,0.274,0.375,0.457,0.627c-0.353,0.3-0.987,0.741-1.98,1.137c-1.908,0.761-3.545,0.258-4.295-1.312
			c-0.761-1.591-0.136-3.449,1.9-4.268c2.281-0.917,3.437,0.505,3.78,1.516c0.069,0.204,0.106,0.368,0.117,0.491
			C541.602,103.674,540.677,104.037,538.854,104.85z M542.087,102.719c-0.214-0.625-0.929-1.508-2.323-0.944
			c-1.281,0.518-1.409,1.668-1.205,2.379C539.953,103.528,540.66,103.241,542.087,102.719z"/>
		<path d="M544.592,101.081c-0.18-0.584-0.333-1.041-0.518-1.485c0.46-0.142,0.689-0.209,1.152-0.341
			c0.134,0.356,0.201,0.536,0.334,0.893c0.012-0.003,0.016-0.005,0.027-0.008c0.203-0.618,0.895-1.376,2.095-1.658
			c1.005-0.236,2.662-0.069,3.028,1.888c0.255,1.363,0.384,2.045,0.639,3.408c-0.477,0.089-0.713,0.136-1.188,0.236
			c-0.277-1.31-0.42-1.965-0.697-3.274c-0.194-0.915-0.79-1.611-2.014-1.313c-0.841,0.205-1.362,0.875-1.444,1.492
			c-0.019,0.141,0.005,0.335,0.05,0.497c0.379,1.349,0.566,2.024,0.945,3.373c-0.469,0.131-0.701,0.198-1.167,0.341
			C545.338,103.509,545.089,102.7,544.592,101.081z"/>
		<path d="M555.531,95.178c0.687-0.168,1.7-0.311,2.64-0.35c1.48-0.062,2.458,0.169,3.113,0.625c0.51,0.354,0.81,0.914,0.793,1.55
			c-0.027,1.055-0.896,1.737-1.927,2.034c0,0.014,0,0.021,0,0.036c0.755,0.21,1.209,0.798,1.432,1.638
			c0.298,1.125,0.489,1.919,0.658,2.236c-0.493-0.016-0.742-0.021-1.235-0.024c-0.149-0.229-0.35-0.926-0.61-1.933
			c-0.289-1.114-0.841-1.537-2-1.525c-0.48,0.02-0.722,0.033-1.202,0.063c0.089,1.398,0.137,2.097,0.226,3.495
			c-0.477,0.03-0.718,0.047-1.193,0.089C555.947,99.938,555.809,98.352,555.531,95.178z M557.144,98.738
			c0.529-0.034,0.792-0.048,1.321-0.068c1.383-0.054,2.266-0.654,2.268-1.577c0.002-1.043-0.987-1.511-2.432-1.453
			c-0.659,0.026-1.112,0.104-1.344,0.166C557.031,96.979,557.068,97.565,557.144,98.738z"/>
		<path d="M566.277,103.371c-1.769-0.199-3.107-1.406-3.016-3.239c0.097-1.94,1.795-3.011,3.822-2.778
			c2.12,0.244,3.326,1.714,3.013,3.449c-0.384,2.125-2.24,2.746-3.805,2.569C566.287,103.373,566.282,103.372,566.277,103.371z
			 M566.41,102.589c1.16,0.132,2.171-0.664,2.373-1.967c0.15-0.972-0.272-2.306-1.835-2.485c-1.548-0.177-2.313,0.938-2.396,2.039
			c-0.094,1.268,0.669,2.278,1.844,2.412C566.402,102.587,566.404,102.588,566.41,102.589z"/>
		<path d="M572.838,95.682c0.555,0.117,0.831,0.18,1.383,0.311c-0.336,1.415-0.501,2.121-0.837,3.535
			c0.012,0.003,0.017,0.005,0.028,0.008c0.605-0.522,1.548-0.715,2.706-0.385c1.782,0.509,2.612,2.084,2.037,3.738
			c-0.686,1.971-2.461,2.447-3.893,2.044c-0.929-0.261-1.579-0.751-1.909-1.617c-0.011-0.002-0.018-0.004-0.028-0.007
			c-0.114,0.367-0.171,0.551-0.284,0.919c-0.408-0.095-0.614-0.14-1.023-0.226c0.122-0.379,0.259-0.952,0.366-1.456
			C571.966,99.8,572.256,98.428,572.838,95.682z M572.792,102.014c-0.03,0.128-0.054,0.266-0.049,0.384
			c0.032,0.736,0.652,1.426,1.503,1.66c1.256,0.347,2.251-0.268,2.658-1.536c0.359-1.12-0.06-2.313-1.438-2.694
			c-0.88-0.244-1.826,0.052-2.258,0.756c-0.072,0.118-0.136,0.251-0.175,0.415C572.938,101.404,572.889,101.607,572.792,102.014z"/>
		<path d="M581.657,98.278c0.534,0.204,0.801,0.311,1.331,0.528c-0.553,1.345-0.827,2.017-1.38,3.361
			c0.012,0.004,0.017,0.007,0.028,0.012c0.684-0.419,1.654-0.459,2.759,0.056c1.701,0.792,2.29,2.489,1.462,4.032
			c-0.987,1.839-2.836,2.019-4.203,1.388c-0.887-0.409-1.46-0.998-1.655-1.907c-0.011-0.004-0.017-0.006-0.027-0.011
			c-0.171,0.345-0.254,0.517-0.424,0.862c-0.393-0.159-0.59-0.236-0.984-0.386c0.18-0.355,0.403-0.898,0.588-1.38
			C580.154,102.212,580.654,100.9,581.657,98.278z M580.636,104.532c-0.05,0.122-0.094,0.253-0.106,0.37
			c-0.081,0.733,0.432,1.516,1.244,1.885c1.2,0.546,2.286,0.1,2.887-1.088c0.53-1.049,0.295-2.3-1.021-2.9
			c-0.841-0.383-1.829-0.24-2.367,0.386c-0.09,0.105-0.175,0.226-0.238,0.381C580.875,103.953,580.794,104.146,580.636,104.532z"/>
		<path d="M587.818,107.685c-0.706,1.241-0.081,2.293,0.979,2.995c0.758,0.502,1.29,0.724,1.761,0.87
			c-0.098,0.296-0.145,0.443-0.244,0.738c-0.46-0.126-1.202-0.41-2.116-1.012c-1.756-1.155-2.287-2.787-1.432-4.302
			c0.867-1.535,2.752-2.086,4.63-0.858c2.104,1.376,1.623,3.157,0.99,4.017c-0.128,0.174-0.24,0.299-0.336,0.378
			C590.401,109.291,589.552,108.727,587.818,107.685z M591.483,109.16c0.391-0.532,0.696-1.632-0.593-2.472
			c-1.184-0.771-2.205-0.219-2.671,0.355C589.549,107.838,590.202,108.261,591.483,109.16z"/>
		<path d="M594.343,110.347c0.378-0.48,0.665-0.869,0.923-1.276c0.395,0.31,0.59,0.468,0.979,0.789
			c-0.216,0.313-0.325,0.471-0.541,0.784c0.01,0.008,0.017,0.012,0.026,0.021c0.637-0.174,1.687-0.008,2.656,0.871
			c0.812,0.736,1.696,2.279,0.289,3.686c-0.98,0.98-1.47,1.47-2.45,2.451c-0.368-0.368-0.554-0.55-0.929-0.907
			c0.922-0.97,1.381-1.456,2.303-2.426c0.645-0.678,0.857-1.589-0.14-2.477c-0.685-0.61-1.559-0.678-2.121-0.403
			c-0.128,0.063-0.28,0.189-0.388,0.318c-0.893,1.079-1.34,1.619-2.233,2.698c-0.394-0.326-0.591-0.486-0.99-0.801
			C592.774,112.344,593.297,111.678,594.343,110.347z"/>
	</g>
</g>
<g>
	<g>
		<path d="M400.048,102.19c-3.027-1.668-4.631-2.401-7.984-3.62c0.458-0.458,0.691-0.683,1.162-1.123
			c1.606,0.679,2.391,1.046,3.92,1.83c1.039,0.544,1.958,1.074,2.759,1.626c0.009-0.007,0.014-0.011,0.022-0.019
			c-0.384-0.895-0.715-1.938-0.989-3.062c-0.429-1.689-0.614-2.547-0.925-4.287c0.501-0.356,0.754-0.53,1.264-0.868
			c0.463,3.573,0.826,5.32,1.795,8.68C400.657,101.677,400.453,101.845,400.048,102.19z"/>
		<path d="M407.509,95.658c0.22,0.453,0.459,0.883,0.691,1.211c-0.38,0.184-0.567,0.279-0.943,0.474
			c-0.172-0.24-0.259-0.361-0.433-0.601c-0.015,0.008-0.022,0.01-0.037,0.018c-0.103,0.568-0.533,1.258-1.331,1.729
			c-1.133,0.67-2.147,0.37-2.611-0.33c-0.776-1.169,0.068-2.724,2.505-3.99c-0.022-0.042-0.034-0.064-0.056-0.106
			c-0.223-0.425-0.79-1.14-2.092-0.383c-0.604,0.351-1.143,0.861-1.431,1.372c-0.254-0.173-0.384-0.26-0.642-0.43
			c0.356-0.588,1.036-1.25,1.859-1.718c2.011-1.146,3.062-0.245,3.57,0.802C406.939,94.486,407.129,94.877,407.509,95.658z
			 M405.717,94.803c-1.238,0.622-2.484,1.626-1.891,2.584c0.366,0.592,0.974,0.581,1.494,0.278c0.758-0.44,1.026-1.121,0.971-1.647
			c-0.013-0.115-0.056-0.227-0.106-0.323C405.998,95.339,405.904,95.16,405.717,94.803z"/>
		<path d="M408.165,92.234c-0.24-0.563-0.441-0.999-0.672-1.422c0.439-0.188,0.66-0.277,1.103-0.453
			c0.168,0.341,0.252,0.512,0.419,0.853c0.011-0.004,0.017-0.007,0.028-0.012c0.135-0.633,0.744-1.453,1.901-1.836
			c0.969-0.321,2.617-0.28,3.132,1.644c0.358,1.339,0.537,2.01,0.896,3.35c-0.447,0.119-0.671,0.182-1.116,0.315
			c-0.385-1.282-0.576-1.922-0.961-3.205c-0.269-0.896-0.915-1.546-2.09-1.145c-0.807,0.276-1.251,0.992-1.268,1.612
			c-0.004,0.142,0.036,0.334,0.097,0.49c0.511,1.305,0.766,1.956,1.276,3.26c-0.435,0.17-0.651,0.259-1.082,0.442
			C409.163,94.571,408.83,93.792,408.165,92.234z"/>
		<path d="M418.476,85.54c0.58-0.189,1.533-0.377,2.481-0.457c1.375-0.116,2.282,0.064,2.926,0.433
			c0.533,0.306,0.893,0.783,0.895,1.418c0.002,0.792-0.648,1.468-1.653,1.81c0.001,0.015,0,0.021,0.001,0.036
			c0.938,0.142,2.013,0.781,2.006,1.98c-0.004,0.696-0.318,1.222-0.778,1.622c-0.603,0.524-1.583,0.782-3.013,0.914
			c-0.78,0.072-1.383,0.104-1.766,0.109C419.135,90.26,418.915,88.686,418.476,85.54z M420.2,88.662
			c0.461-0.05,0.692-0.073,1.154-0.11c1.33-0.108,2.102-0.708,2.077-1.486c-0.03-0.935-0.962-1.301-2.328-1.188
			c-0.622,0.051-0.973,0.126-1.186,0.186C420.03,87.103,420.086,87.623,420.2,88.662z M420.621,92.501
			c0.243,0.01,0.563-0.011,0.975-0.045c1.195-0.1,2.29-0.521,2.261-1.696c-0.027-1.091-1.175-1.537-2.538-1.422
			c-0.413,0.035-0.619,0.055-1.032,0.1C420.421,90.663,420.487,91.276,420.621,92.501z"/>
		<path d="M431.297,92.189c-0.081,0.497-0.137,0.987-0.137,1.388c-0.408-0.067-0.611-0.098-1.021-0.155
			c-0.001-0.295-0.002-0.442-0.005-0.738c-0.016-0.002-0.024-0.004-0.04-0.006c-0.404,0.405-1.136,0.722-2.032,0.647
			c-1.272-0.106-1.897-0.938-1.87-1.777c0.046-1.402,1.569-2.18,4.228-1.815c0.006-0.048,0.009-0.071,0.015-0.119
			c0.063-0.476,0.012-1.383-1.445-1.515c-0.677-0.061-1.388,0.044-1.9,0.294c-0.103-0.289-0.156-0.434-0.263-0.722
			c0.609-0.273,1.517-0.42,2.434-0.33c2.24,0.222,2.575,1.558,2.388,2.706C431.506,90.905,431.438,91.333,431.297,92.189z
			 M430.349,90.462c-1.339-0.202-2.886-0.102-2.956,1.023c-0.044,0.694,0.442,1.036,1.024,1.089
			c0.848,0.077,1.444-0.325,1.698-0.787c0.055-0.102,0.086-0.22,0.101-0.327C430.27,91.061,430.295,90.861,430.349,90.462z"/>
		<path d="M432.956,92.828c0.317,0.262,0.869,0.604,1.439,0.748c0.817,0.205,1.304-0.034,1.438-0.507
			c0.139-0.484-0.114-0.859-0.913-1.353c-1.095-0.676-1.571-1.331-1.431-2.013c0.189-0.916,1.298-1.489,2.811-1.086
			c0.719,0.191,1.303,0.529,1.617,0.84c-0.211,0.251-0.314,0.378-0.521,0.631c-0.231-0.208-0.675-0.552-1.323-0.725
			c-0.751-0.199-1.242,0.06-1.342,0.48c-0.113,0.479,0.237,0.778,1.032,1.287c1.045,0.669,1.479,1.347,1.214,2.181
			c-0.313,0.983-1.365,1.385-2.802,1.026c-0.674-0.168-1.261-0.467-1.654-0.791C432.693,93.259,432.78,93.115,432.956,92.828z"/>
		<path d="M441.908,89.159c-0.208,0.516-0.313,0.775-0.521,1.291c0.714,0.288,1.07,0.44,1.773,0.76
			c-0.133,0.292-0.201,0.438-0.334,0.73c-0.69-0.314-1.039-0.463-1.74-0.746c-0.469,1.162-0.702,1.742-1.171,2.903
			c-0.27,0.667-0.207,1.127,0.403,1.39c0.299,0.128,0.482,0.184,0.663,0.213c-0.112,0.302-0.169,0.454-0.282,0.756
			c-0.236-0.028-0.592-0.108-1.007-0.282c-0.5-0.21-0.846-0.526-1.006-0.883c-0.185-0.413-0.136-0.947,0.101-1.589
			c0.438-1.188,0.658-1.783,1.097-2.972c-0.421-0.155-0.63-0.229-1.054-0.374c0.104-0.304,0.154-0.456,0.258-0.76
			c0.432,0.146,0.648,0.222,1.077,0.38c0.147-0.4,0.221-0.6,0.368-1C441.082,89.042,441.356,89.077,441.908,89.159z"/>
		<path d="M443.724,94.91c-0.63,1.282,0.011,2.271,1.05,2.887c0.743,0.441,1.265,0.622,1.723,0.737
			c-0.089,0.297-0.137,0.446-0.229,0.743c-0.445-0.095-1.165-0.329-2.057-0.853c-1.713-1.007-2.293-2.564-1.541-4.133
			c0.762-1.59,2.583-2.285,4.479-1.18c2.124,1.238,1.692,3.039,1.092,3.921c-0.121,0.179-0.229,0.308-0.32,0.391
			C446.29,96.31,445.448,95.807,443.724,94.91z M447.338,96.121c0.367-0.549,0.634-1.661-0.662-2.412
			c-1.19-0.69-2.166-0.067-2.593,0.536C445.411,94.932,446.063,95.308,447.338,96.121z"/>
		<path d="M450.166,97.148c0.363-0.492,0.634-0.887,0.881-1.301c0.396,0.292,0.592,0.441,0.98,0.746
			c-0.208,0.318-0.313,0.477-0.521,0.794c0.01,0.008,0.013,0.011,0.022,0.019c0.625-0.195,1.665-0.064,2.628,0.787
			c0.806,0.712,1.678,2.235,0.27,3.642c-0.98,0.98-1.47,1.471-2.45,2.451c-0.352-0.351-0.53-0.523-0.89-0.86
			c0.915-0.977,1.372-1.465,2.288-2.441c0.64-0.683,0.855-1.589-0.131-2.443c-0.678-0.586-1.54-0.624-2.091-0.331
			c-0.126,0.067-0.273,0.197-0.377,0.329c-0.867,1.1-1.301,1.65-2.168,2.75c-0.38-0.301-0.57-0.448-0.958-0.734
			C448.655,99.192,449.16,98.511,450.166,97.148z"/>
	</g>
</g>
<g>
	<g>
		<path d="M236.166,114.113c0.56-0.695,1.252-1.467,2.08-2.229c1.5-1.381,2.84-2.035,3.973-2.124c1.16-0.091,2.177,0.319,2.98,1.351
			c0.811,1.042,1.063,2.217,0.829,3.358c-0.24,1.171-1.12,2.434-2.508,3.728c-0.668,0.623-1.214,1.125-1.73,1.54
			C239.54,117.487,238.416,116.362,236.166,114.113z M242.158,118.267c0.267-0.19,0.608-0.516,0.974-0.853
			c2.002-1.844,2.36-3.71,0.996-5.404c-1.207-1.498-3.089-1.566-5.273,0.442c-0.534,0.491-0.9,0.904-1.127,1.206
			C239.5,115.5,240.386,116.423,242.158,118.267z"/>
		<path d="M248.085,110.831c0.859,1.141,2.073,0.987,3.114,0.29c0.745-0.499,1.14-0.906,1.443-1.281
			c0.235,0.204,0.352,0.306,0.585,0.511c-0.281,0.373-0.812,0.948-1.71,1.553c-1.727,1.162-3.45,0.998-4.494-0.394
			c-1.058-1.41-0.815-3.343,0.983-4.56c2.015-1.363,3.438-0.235,3.996,0.675c0.113,0.184,0.186,0.334,0.224,0.452
			C250.539,109.111,249.71,109.662,248.085,110.831z M250.801,108.069c-0.343-0.563-1.225-1.271-2.46-0.433
			c-1.135,0.77-1.027,1.92-0.684,2.575C248.895,109.315,249.524,108.887,250.801,108.069z"/>
		<path d="M252.867,105.922c-0.307-0.529-0.563-0.937-0.844-1.328c0.41-0.239,0.617-0.357,1.03-0.589
			c0.211,0.316,0.317,0.474,0.528,0.79c0.011-0.006,0.015-0.01,0.025-0.016c0.05-0.646,0.538-1.535,1.616-2.089
			c0.902-0.464,2.523-0.706,3.368,1.097c0.588,1.256,0.882,1.884,1.471,3.14c-0.441,0.207-0.66,0.314-1.098,0.529
			c-0.591-1.202-0.886-1.803-1.477-3.005c-0.413-0.84-1.154-1.369-2.256-0.793c-0.757,0.395-1.098,1.166-1.033,1.784
			c0.015,0.141,0.08,0.326,0.161,0.473c0.681,1.225,1.021,1.837,1.702,3.062c-0.428,0.239-0.642,0.359-1.066,0.606
			C254.143,108.118,253.719,107.386,252.867,105.922z"/>
		<path d="M260.187,102.229c-0.242-0.562-0.446-0.997-0.678-1.419c0.43-0.186,0.647-0.277,1.08-0.456
			c0.172,0.339,0.258,0.51,0.43,0.849c0.011-0.004,0.016-0.008,0.027-0.013c0.123-0.634,0.702-1.455,1.826-1.872
			c0.941-0.349,2.563-0.391,3.188,1.5c0.436,1.316,0.655,1.974,1.091,3.29c-0.458,0.151-0.686,0.23-1.141,0.39
			c-0.444-1.263-0.667-1.894-1.112-3.157c-0.311-0.883-0.979-1.498-2.128-1.063c-0.79,0.298-1.214,1.019-1.22,1.64
			c-0.001,0.142,0.041,0.333,0.104,0.488c0.531,1.296,0.796,1.945,1.327,3.242c-0.448,0.183-0.672,0.277-1.117,0.469
			C261.193,104.562,260.858,103.785,260.187,102.229z"/>
		<path d="M267.669,96.76c-0.479,0.138-0.887-0.066-0.994-0.422c-0.107-0.356,0.145-0.747,0.648-0.891s0.909,0.058,1.008,0.417
			c0.099,0.358-0.139,0.746-0.647,0.891C267.679,96.756,267.675,96.758,267.669,96.76z M269.021,103.524
			c-0.663-2.226-0.994-3.337-1.656-5.563c0.502-0.149,0.754-0.223,1.259-0.362c0.621,2.238,0.93,3.356,1.551,5.594
			C269.712,103.321,269.481,103.387,269.021,103.524z"/>
		<path d="M271.689,101.695c0.409,0.097,1.075,0.16,1.666,0.03c0.846-0.187,1.176-0.628,1.08-1.11
			c-0.099-0.494-0.499-0.705-1.442-0.788c-1.293-0.113-2.007-0.504-2.175-1.18c-0.226-0.908,0.511-1.892,2.008-2.208
			c0.712-0.15,1.37-0.117,1.785,0.014c-0.067,0.32-0.099,0.48-0.163,0.8c-0.297-0.078-0.842-0.18-1.488-0.043
			c-0.748,0.158-1.068,0.602-0.972,1.022c0.11,0.479,0.557,0.598,1.497,0.692c1.235,0.124,1.939,0.514,2.096,1.375
			c0.185,1.015-0.582,1.873-2.081,2.204c-0.703,0.155-1.389,0.146-1.898,0.027C271.635,102.197,271.652,102.03,271.689,101.695z"/>
		<path d="M279.396,93.335c0.563-0.171,1.484-0.335,2.397-0.406c1.324-0.103,2.198,0.066,2.827,0.425
			c0.521,0.296,0.884,0.762,0.901,1.397c0.021,0.791-0.604,1.488-1.601,1.839c0.001,0.015,0.001,0.022,0.002,0.037
			c0.934,0.133,2.026,0.742,2.052,1.94c0.015,0.696-0.292,1.231-0.758,1.641c-0.609,0.537-1.625,0.814-3.11,0.937
			c-0.81,0.067-1.434,0.085-1.83,0.081C279.926,98.07,279.749,96.492,279.396,93.335z M281.023,96.498
			c0.458-0.042,0.686-0.061,1.144-0.096c1.319-0.1,2.076-0.715,2.04-1.494c-0.043-0.935-0.95-1.284-2.274-1.183
			c-0.603,0.046-0.945,0.113-1.152,0.169C280.878,94.936,280.926,95.456,281.023,96.498z M281.381,100.344
			c0.25,0.013,0.577-0.005,1.001-0.038c1.23-0.095,2.352-0.534,2.303-1.709c-0.045-1.09-1.198-1.516-2.56-1.41
			c-0.413,0.032-0.619,0.049-1.031,0.087C281.209,98.501,281.267,99.116,281.381,100.344z"/>
		<path d="M288.344,98.139c0.009,1.428,1.027,2.027,2.231,2.084c0.862,0.042,1.403-0.051,1.854-0.173
			c0.065,0.303,0.097,0.455,0.16,0.758c-0.434,0.134-1.175,0.282-2.216,0.235c-2-0.091-3.223-1.255-3.23-2.994
			c-0.007-1.763,1.274-3.166,3.36-3.075c2.336,0.102,2.798,1.85,2.708,2.913c-0.019,0.215-0.047,0.382-0.085,0.499
			C291.216,98.22,290.258,98.169,288.344,98.139z M292.021,97.532c0.059-0.657-0.221-1.749-1.654-1.809
			c-1.317-0.055-1.89,0.93-2,1.66C289.829,97.404,290.562,97.434,292.021,97.532z"/>
		<path d="M294.856,97.262c0.074-0.68,0.122-1.264,0.136-1.805c0.453,0.049,0.68,0.074,1.132,0.13
			c-0.033,0.455-0.049,0.683-0.083,1.138c0.018,0.002,0.025,0.004,0.042,0.006c0.415-0.733,1.276-1.118,2.141-0.984
			c0.132,0.021,0.232,0.048,0.345,0.09c-0.062,0.389-0.093,0.583-0.155,0.972c-0.143-0.035-0.271-0.068-0.444-0.094
			c-0.896-0.137-1.627,0.351-1.879,1.093c-0.05,0.148-0.083,0.316-0.106,0.495c-0.157,1.228-0.235,1.842-0.392,3.069
			c-0.474-0.06-0.711-0.087-1.186-0.139C294.588,99.645,294.677,98.849,294.856,97.262z"/>
		<path d="M304.42,102.239c-0.35,1.297-0.864,2.001-1.578,2.341c-0.732,0.348-1.646,0.315-2.427,0.149
			c-0.742-0.158-1.531-0.479-1.981-0.876c0.171-0.301,0.259-0.45,0.434-0.75c0.374,0.325,0.982,0.659,1.76,0.825
			c1.167,0.25,2.152-0.081,2.51-1.512c0.062-0.247,0.093-0.371,0.154-0.617c-0.011-0.003-0.016-0.005-0.027-0.008
			c-0.48,0.438-1.281,0.686-2.279,0.472c-1.597-0.341-2.545-1.732-2.274-3.329c0.329-1.94,2.079-2.765,3.705-2.412
			c1.22,0.264,1.747,0.931,1.943,1.475c0.012,0.003,0.018,0.005,0.029,0.008c0.101-0.331,0.153-0.496,0.254-0.827
			c0.45,0.113,0.673,0.171,1.121,0.292c-0.149,0.382-0.284,0.829-0.468,1.512C304.945,100.284,304.771,100.938,304.42,102.239z
			 M303.889,99.34c0.041-0.163,0.062-0.321,0.043-0.473c-0.083-0.651-0.557-1.3-1.489-1.505c-1.205-0.265-2.229,0.415-2.48,1.746
			c-0.209,1.108,0.277,2.166,1.542,2.444c0.741,0.163,1.488-0.093,1.901-0.676c0.103-0.146,0.185-0.337,0.231-0.523
			C303.738,99.947,303.788,99.745,303.889,99.34z"/>
		<path d="M308.22,100.971c0.011,0.003,0.017,0.006,0.027,0.009c0.226-0.142,0.528-0.321,0.782-0.439
			c1.04-0.499,1.57-0.738,2.649-1.196c0.589,0.216,0.883,0.328,1.468,0.558c-1.392,0.48-2.073,0.738-3.406,1.287
			c0.712,1.694,1.035,2.545,1.616,4.249c-0.546-0.218-0.822-0.323-1.372-0.528c-0.463-1.365-0.715-2.046-1.261-3.406
			c-0.321,0.151-0.48,0.228-0.798,0.382c-0.268,0.831-0.402,1.246-0.671,2.077c-0.458-0.147-0.689-0.219-1.15-0.358
			c0.986-3.261,1.479-4.891,2.464-8.152c0.521,0.157,0.782,0.239,1.301,0.406C309.21,97.903,308.88,98.925,308.22,100.971z"/>
		<path d="M317.282,106.592c-0.228,0.449-0.425,0.9-0.543,1.285c-0.391-0.199-0.585-0.298-0.978-0.49
			c0.089-0.282,0.132-0.423,0.22-0.706c-0.015-0.007-0.022-0.01-0.038-0.018c-0.526,0.251-1.36,0.302-2.228-0.086
			c-1.232-0.55-1.557-1.566-1.238-2.343c0.532-1.299,2.238-1.473,4.695-0.269c0.021-0.043,0.031-0.063,0.052-0.107
			c0.209-0.432,0.439-1.305-0.901-1.908c-0.623-0.281-1.329-0.421-1.899-0.363c0.001-0.307,0.002-0.461,0.001-0.768
			c0.667-0.047,1.564,0.119,2.4,0.502c2.042,0.937,1.968,2.296,1.441,3.333C317.873,105.43,317.676,105.818,317.282,106.592z
			 M316.879,104.638c-1.24-0.628-2.764-1.068-3.211-0.033c-0.276,0.639,0.086,1.134,0.645,1.387
			c0.813,0.368,1.536,0.186,1.929-0.171c0.085-0.079,0.15-0.179,0.197-0.276C316.614,105.181,316.703,105,316.879,104.638z"/>
		<path d="M320.42,105.032c0.293-0.537,0.498-0.971,0.701-1.407c0.41,0.224,0.613,0.338,1.02,0.569
			c-0.164,0.337-0.245,0.506-0.409,0.843c0.016,0.009,0.023,0.014,0.039,0.023c0.625-0.279,1.482-0.388,2.537,0.261
			c0.847,0.521,1.231,1.346,1.122,2.092c0.01,0.007,0.015,0.01,0.025,0.016c0.374-0.157,0.761-0.186,1.114-0.165
			c0.513,0.031,0.991,0.181,1.571,0.592c0.819,0.581,1.69,1.87,0.469,3.473c-0.829,1.088-1.243,1.632-2.072,2.72
			c-0.389-0.297-0.584-0.444-0.978-0.732c0.777-1.061,1.165-1.592,1.942-2.652c0.666-0.91,0.627-1.764-0.247-2.375
			c-0.637-0.445-1.395-0.404-1.843-0.111c-0.134,0.088-0.28,0.231-0.379,0.381c-0.794,1.201-1.192,1.801-1.987,3.001
			c-0.403-0.268-0.605-0.399-1.013-0.659c0.746-1.174,1.12-1.761,1.866-2.936c0.501-0.79,0.422-1.628-0.442-2.152
			c-0.697-0.423-1.501-0.248-1.94,0.081c-0.133,0.1-0.257,0.24-0.346,0.396c-0.695,1.217-1.042,1.826-1.736,3.042
			c-0.417-0.238-0.626-0.355-1.046-0.585C319.2,107.262,319.607,106.518,320.42,105.032z"/>
		<path d="M330.599,112.273c0.469-0.577,0.836-1.053,1.147-1.511c0.382,0.311,0.573,0.468,0.951,0.787
			c-0.232,0.325-0.35,0.489-0.583,0.813c0.009,0.008,0.016,0.013,0.025,0.021c0.876-0.201,1.837,0.083,2.747,0.914
			c1.377,1.257,1.526,3.098,0.28,4.345c-1.476,1.476-3.308,1.099-4.516,0.004c-0.695-0.63-1.072-1.396-1.021-2.108
			c-0.009-0.007-0.013-0.012-0.021-0.02c-0.815,0.963-1.223,1.445-2.038,2.408c-0.372-0.315-0.559-0.469-0.935-0.775
			C328.22,115.2,329.013,114.224,330.599,112.273z M330.628,114.31c-0.093,0.11-0.182,0.242-0.234,0.368
			c-0.289,0.695-0.034,1.593,0.639,2.199c1.01,0.909,2.207,0.809,3.129-0.151c0.806-0.839,0.935-2.11-0.142-3.081
			c-0.695-0.627-1.757-0.833-2.405-0.384c-0.114,0.079-0.25,0.18-0.335,0.281C331.021,113.848,330.889,114.002,330.628,114.31z"/>
	</g>
</g>
<text transform="matrix(1 0 0 1 389.416 504.2041)" fill="#FFFFFF" font-family="'Myriad-Roman'" font-size="24">Rinus Michels</text>
<text transform="matrix(1 0 0 1 405.7773 429.1406)" fill="#FFFFFF" font-family="'Myriad-Roman'" font-size="36">01</text>
<text transform="matrix(1 0 0 1 275.7813 380.002)" fill="#FFFFFF" font-family="'Myriad-Roman'" font-size="36">04</text>
<text transform="matrix(1 0 0 1 408.8652 364.1406)" fill="#FFFFFF" font-family="'Myriad-Roman'" font-size="36">05</text>
<text transform="matrix(1 0 0 1 536.8496 380.002)" fill="#FFFFFF" font-family="'Myriad-Roman'" font-size="36">02</text>
<text transform="matrix(1 0 0 1 341.9258 298.6406)" fill="#FFFFFF" font-family="'Myriad-Roman'" font-size="36">08</text>
<text transform="matrix(1 0 0 1 481.4072 298.6406)" fill="#FFFFFF" font-family="'Myriad-Roman'" font-size="36">11</text>
<text transform="matrix(1 0 0 1 278.8652 219.7617)" fill="#FFFFFF" font-family="'Myriad-Roman'" font-size="36">14</text>
<text transform="matrix(1 0 0 1 266.6641 146.4658)" fill="#FFFFFF" font-family="'Myriad-Roman'" font-size="36">10</text>
<text transform="matrix(1 0 0 1 404.7773 135.4658)" fill="#FFFFFF" font-family="'Myriad-Roman'" font-size="36">09</text>
<text transform="matrix(1 0 0 1 539.8496 146.4658)" fill="#FFFFFF" font-family="'Myriad-Roman'" font-size="36">18</text>
<text transform="matrix(1 0 0 1 528.4189 220.7617)" fill="#FFFFFF" font-family="'Myriad-Roman'" font-size="36">17</text>
</svg>
